{"canvas_config":{"height":1080,"ratio":"original","width":1920},"color_space":0,"config":{"adjust_max_index":1,"attachment_info":[],"combination_max_index":1,"export_range":null,"extract_audio_last_index":1,"lyrics_recognition_id":"","lyrics_sync":true,"lyrics_taskinfo":[],"maintrack_adsorb":true,"material_save_mode":1,"multi_language_current":"none","multi_language_list":[],"multi_language_main":"none","multi_language_mode":"none","original_sound_last_index":1,"record_audio_last_index":1,"sticker_max_index":1,"subtitle_keywords_config":null,"subtitle_recognition_id":"","subtitle_sync":true,"subtitle_taskinfo":[],"system_font_list":[],"video_mute":false,"zoom_info_params":{"offset_x":0.0,"offset_y":0.0,"zoom_ratio":0.999770000000001}},"cover":null,"create_time":0,"duration":102000000,"extra_info":null,"fps":30.0,"free_render_index_mode_on":false,"group_container":null,"id":"F6034806-1C48-4af4-8DDB-0C75EE9DF1E9","keyframe_graph_list":[],"keyframes":{"adjusts":[],"audios":[],"effects":[],"filters":[],"handwrites":[],"stickers":[],"texts":[],"videos":[]},"last_modified_platform":{"app_id":359289,"app_source":"cc","app_version":"3.9.0","device_id":"b000ef05ad8a2c8de98905bbc4a2a13d","hard_disk_id":"98697f5b2672733057711c84e4b517c3","mac_address":"3ab780bc59d11a00e1ba676c31de1115,09861091e4eef2367b35d8703476edfc","os":"windows","os_version":"10.0.26100"},"materials":{"ai_translates":[],"audio_balances":[],"audio_effects":[],"audio_fades":[],"audio_track_indexes":[],"audios":[],"beats":[],"canvases":[{"album_image":"","blur":0.0,"color":"","id":"89EECAC9-2F5F-4516-99EE-8B655E62A0AA","image":"","image_id":"","image_name":"","source_platform":0,"team_id":"","type":"canvas_color"},{"album_image":"","blur":0.0,"color":"","id":"6E895B68-8FD8-4222-8A94-6F4C13304B9F","image":"","image_id":"","image_name":"","source_platform":0,"team_id":"","type":"canvas_color"},{"album_image":"","blur":0.0,"color":"","id":"633134E0-10CE-4d62-9197-739D90F52407","image":"","image_id":"","image_name":"","source_platform":0,"team_id":"","type":"canvas_color"},{"album_image":"","blur":0.0,"color":"","id":"FE14287D-2570-4bd8-AC45-9419369AD684","image":"","image_id":"","image_name":"","source_platform":0,"team_id":"","type":"canvas_color"},{"album_image":"","blur":0.0,"color":"","id":"9456B8DD-99AA-436a-99F6-023472298022","image":"","image_id":"","image_name":"","source_platform":0,"team_id":"","type":"canvas_color"},{"album_image":"","blur":0.0,"color":"","id":"6F0EB217-6FE5-49d3-A73E-5D69391BDC76","image":"","image_id":"","image_name":"","source_platform":0,"team_id":"","type":"canvas_color"},{"album_image":"","blur":0.0,"color":"","id":"B4BBD771-5D5F-464f-AF70-23BC6D8DF8B0","image":"","image_id":"","image_name":"","source_platform":0,"team_id":"","type":"canvas_color"},{"album_image":"","blur":0.0,"color":"","id":"469B47F0-5858-4227-B6E0-AA6EB771D061","image":"","image_id":"","image_name":"","source_platform":0,"team_id":"","type":"canvas_color"},{"album_image":"","blur":0.0,"color":"","id":"10C8FB81-C841-4181-828C-2208DA278133","image":"","image_id":"","image_name":"","source_platform":0,"team_id":"","type":"canvas_color"},{"album_image":"","blur":0.0,"color":"","id":"1183DFE0-5E34-4bf7-B605-331E1A535828","image":"","image_id":"","image_name":"","source_platform":0,"team_id":"","type":"canvas_color"},{"album_image":"","blur":0.0,"color":"","id":"4400C5B3-B433-48c2-AB70-5206F6732D03","image":"","image_id":"","image_name":"","source_platform":0,"team_id":"","type":"canvas_color"},{"album_image":"","blur":0.0,"color":"","id":"91397D19-F2C2-4c8f-BDBB-FEFA3A6CA429","image":"","image_id":"","image_name":"","source_platform":0,"team_id":"","type":"canvas_color"},{"album_image":"","blur":0.0,"color":"","id":"2BD3B28A-7F9E-4b8f-B90F-DD2D19E79772","image":"","image_id":"","image_name":"","source_platform":0,"team_id":"","type":"canvas_color"},{"album_image":"","blur":0.0,"color":"","id":"62857576-F41C-4617-95EE-8BA79918D65B","image":"","image_id":"","image_name":"","source_platform":0,"team_id":"","type":"canvas_color"},{"album_image":"","blur":0.0,"color":"","id":"71489C0E-EF51-4df3-A9EF-11568F50CE8D","image":"","image_id":"","image_name":"","source_platform":0,"team_id":"","type":"canvas_color"},{"album_image":"","blur":0.0,"color":"","id":"B636D0CF-2ECA-4cf4-A80E-D1F95A3DEAC2","image":"","image_id":"","image_name":"","source_platform":0,"team_id":"","type":"canvas_color"},{"album_image":"","blur":0.0,"color":"","id":"A8FA2745-19F3-4ffd-B028-90AAE0B270AC","image":"","image_id":"","image_name":"","source_platform":0,"team_id":"","type":"canvas_color"},{"album_image":"","blur":0.0,"color":"","id":"67ADACE5-1062-462d-B22E-784810603441","image":"","image_id":"","image_name":"","source_platform":0,"team_id":"","type":"canvas_color"},{"album_image":"","blur":0.0,"color":"","id":"7D4A65C5-1CBB-4a9e-98A3-9F8923152B14","image":"","image_id":"","image_name":"","source_platform":0,"team_id":"","type":"canvas_color"},{"album_image":"","blur":0.0,"color":"","id":"EEA10E24-7C36-4e5d-986C-D792CB6139E9","image":"","image_id":"","image_name":"","source_platform":0,"team_id":"","type":"canvas_color"},{"album_image":"","blur":0.0,"color":"","id":"9E9E2073-A097-4908-9C7F-AA67FC53F342","image":"","image_id":"","image_name":"","source_platform":0,"team_id":"","type":"canvas_color"},{"album_image":"","blur":0.0,"color":"","id":"11B36CCD-0F69-4488-90CC-A86727201C17","image":"","image_id":"","image_name":"","source_platform":0,"team_id":"","type":"canvas_color"}],"chromas":[],"color_curves":[],"digital_humans":[],"drafts":[],"effects":[],"flowers":[],"green_screens":[],"handwrites":[],"hsl":[],"images":[],"log_color_wheels":[],"loudnesses":[],"manual_deformations":[],"masks":[],"material_animations":[{"animations":[],"id":"A53B8718-0641-4351-A11B-6C3B1CAB554B","multi_language_current":"none","type":"sticker_animation"},{"animations":[],"id":"9F463929-C95C-4b33-B4FD-0C21C9FEF6A9","multi_language_current":"none","type":"sticker_animation"},{"animations":[],"id":"11600053-4E44-49cf-9B04-2639EBB095C0","multi_language_current":"none","type":"sticker_animation"},{"animations":[],"id":"F7A07F82-C049-4fa4-AD9B-A507DB3BFA70","multi_language_current":"none","type":"sticker_animation"},{"animations":[],"id":"0B902CCA-49A9-4708-AB8D-02C68A2B9B8C","multi_language_current":"none","type":"sticker_animation"},{"animations":[],"id":"B015B1FF-E0E7-4920-9A69-C55D1DAB7E7D","multi_language_current":"none","type":"sticker_animation"},{"animations":[],"id":"AFC64144-BB7A-4e24-9C97-FB395F576B2E","multi_language_current":"none","type":"sticker_animation"},{"animations":[],"id":"76669D6A-D25A-4a84-932B-E4F8CEF66BDC","multi_language_current":"none","type":"sticker_animation"},{"animations":[],"id":"9B4B8451-6277-4bf4-8B84-5BAC3A57AFFE","multi_language_current":"none","type":"sticker_animation"},{"animations":[],"id":"32A344A1-BF30-4e58-BD36-E0740C433C15","multi_language_current":"none","type":"sticker_animation"},{"animations":[],"id":"571C46D3-AAEF-4ca2-8486-76A80E014E6C","multi_language_current":"none","type":"sticker_animation"},{"animations":[],"id":"11FBD945-9140-4aef-A1E8-6FA13C7C06D0","multi_language_current":"none","type":"sticker_animation"},{"animations":[],"id":"86895C5E-A6D4-45db-A9F1-361E2C80E881","multi_language_current":"none","type":"sticker_animation"},{"animations":[],"id":"6D6AD043-E698-4408-B412-EC3133CEFE9F","multi_language_current":"none","type":"sticker_animation"},{"animations":[],"id":"4E3A3593-654B-4e55-8232-548138A0A24E","multi_language_current":"none","type":"sticker_animation"},{"animations":[],"id":"62DD0615-FAB6-4a52-8CA3-CE837A4EA8A9","multi_language_current":"none","type":"sticker_animation"},{"animations":[],"id":"C6548A00-E5D6-41c1-AE49-0F3737D154C9","multi_language_current":"none","type":"sticker_animation"},{"animations":[],"id":"1133E5FC-2F61-45b0-A26B-977AF85EE404","multi_language_current":"none","type":"sticker_animation"},{"animations":[],"id":"524D1E62-33EA-4387-98A7-B5FCBC25C1B5","multi_language_current":"none","type":"sticker_animation"},{"animations":[],"id":"98CD8816-71DD-450e-8895-8509ACE2B0C8","multi_language_current":"none","type":"sticker_animation"},{"animations":[],"id":"80BE0646-7D92-48e0-A20D-7626D00DCEE4","multi_language_current":"none","type":"sticker_animation"},{"animations":[],"id":"A8A4ED32-7CD1-4d53-9A0C-3BFC90F64C85","multi_language_current":"none","type":"sticker_animation"}],"material_colors":[],"multi_language_refs":[],"placeholders":[],"plugin_effects":[],"primary_color_wheels":[],"realtime_denoises":[],"shapes":[],"smart_crops":[],"smart_relights":[],"sound_channel_mappings":[{"audio_channel_mapping":0,"id":"9C9D0E90-1108-4185-94E9-7C2CCF3779BC","is_config_open":false,"type":""},{"audio_channel_mapping":0,"id":"286EFF92-8BF9-405a-AA7E-F4AD2EB250C4","is_config_open":false,"type":""},{"audio_channel_mapping":0,"id":"808A52D4-F30B-4ef9-AC80-B42600028C84","is_config_open":false,"type":""},{"audio_channel_mapping":0,"id":"70231891-6CEF-44d5-83F4-723FCE597E91","is_config_open":false,"type":""},{"audio_channel_mapping":0,"id":"911E04A4-7CCA-4afa-80C6-3F9B2BC2D836","is_config_open":false,"type":""},{"audio_channel_mapping":0,"id":"2672B592-DDCD-47e3-88C9-4C1CAF76B4D1","is_config_open":false,"type":""},{"audio_channel_mapping":0,"id":"FEE95F65-D089-4ec6-9403-5EA5AD25A586","is_config_open":false,"type":""},{"audio_channel_mapping":0,"id":"C290AC6F-2630-454f-B0B7-402A15F26317","is_config_open":false,"type":""},{"audio_channel_mapping":0,"id":"8D1C2990-7118-4ecb-93A0-97D14CB91D30","is_config_open":false,"type":""},{"audio_channel_mapping":0,"id":"0DD98F23-A4D8-4427-90BB-D458D32E3513","is_config_open":false,"type":""},{"audio_channel_mapping":0,"id":"49D356E7-3A0F-4fe2-8F84-495E7F94DE23","is_config_open":false,"type":""},{"audio_channel_mapping":0,"id":"00B20D41-55ED-4b92-A844-327BC0F97BF1","is_config_open":false,"type":""},{"audio_channel_mapping":0,"id":"3D115A21-47DD-4a73-890F-4B9287BD3261","is_config_open":false,"type":""},{"audio_channel_mapping":0,"id":"997083C3-4A64-4157-A5E8-4EBB0672763F","is_config_open":false,"type":""},{"audio_channel_mapping":0,"id":"C3F759FF-421A-45f1-BD8A-5848BBFF39B3","is_config_open":false,"type":""},{"audio_channel_mapping":0,"id":"2064244D-7C6C-498a-8D5F-42CBB0B61094","is_config_open":false,"type":""},{"audio_channel_mapping":0,"id":"3FC6E014-5359-48d3-B72F-BC3F65C357AD","is_config_open":false,"type":""},{"audio_channel_mapping":0,"id":"5ADCA88C-459F-40aa-947F-0EF9FEF8C09E","is_config_open":false,"type":""},{"audio_channel_mapping":0,"id":"F6E99F25-321F-4282-8B12-F89152295201","is_config_open":false,"type":""},{"audio_channel_mapping":0,"id":"10749736-2E9F-45d9-AF70-9C276915450F","is_config_open":false,"type":""},{"audio_channel_mapping":0,"id":"A52CC8C7-4850-4e26-94E1-5CD164CB4DB0","is_config_open":false,"type":""},{"audio_channel_mapping":0,"id":"DD156D51-9608-412b-B537-6E876C962634","is_config_open":false,"type":""}],"speeds":[{"curve_speed":null,"id":"70D17F38-3910-43bb-9770-0E7A03F36AB8","mode":0,"speed":1.0,"type":"speed"},{"curve_speed":null,"id":"19D108EC-6EE7-4d72-B591-0A8BB7AF49ED","mode":0,"speed":1.0,"type":"speed"},{"curve_speed":null,"id":"459F4010-2DEA-4f81-9508-B65272264D27","mode":0,"speed":1.0,"type":"speed"},{"curve_speed":null,"id":"E1C092BB-9187-4163-9B12-7B076CC5DA7B","mode":0,"speed":1.0,"type":"speed"},{"curve_speed":null,"id":"0A60662C-C5B9-4d74-9E54-0BCE60A02890","mode":0,"speed":1.0,"type":"speed"},{"curve_speed":null,"id":"A99F9324-4EF7-4745-BF60-6D51606F1B2F","mode":0,"speed":1.0,"type":"speed"},{"curve_speed":null,"id":"2A831922-7DD4-43ab-906E-2D8D96A787EB","mode":0,"speed":1.0,"type":"speed"},{"curve_speed":null,"id":"4FA5D7C7-DB9B-4d0c-B66C-65FF4A16131D","mode":0,"speed":1.0,"type":"speed"},{"curve_speed":null,"id":"43408264-A1E8-48ab-B8A0-75360BFB1988","mode":0,"speed":1.0,"type":"speed"},{"curve_speed":null,"id":"71950E48-8601-408e-940A-C6B65E689DAC","mode":0,"speed":1.0,"type":"speed"},{"curve_speed":null,"id":"51E3C535-5C47-4050-AD4A-B2A807FF4043","mode":0,"speed":1.0,"type":"speed"},{"curve_speed":null,"id":"1EE459E8-A684-4754-8752-8E1FA84F755B","mode":0,"speed":1.0,"type":"speed"},{"curve_speed":null,"id":"09E003A0-D020-4552-B817-548382BC654C","mode":0,"speed":1.0,"type":"speed"},{"curve_speed":null,"id":"7598E144-D91E-4c0e-9F28-FB4CDC834586","mode":0,"speed":1.0,"type":"speed"},{"curve_speed":null,"id":"D6326DC9-EC61-495f-AC2E-E87F30A063C5","mode":0,"speed":1.0,"type":"speed"},{"curve_speed":null,"id":"FBBDC9FE-A691-4d3f-B548-846746CFEF8D","mode":0,"speed":1.0,"type":"speed"},{"curve_speed":null,"id":"DA7D34FC-958C-47c7-AC81-BBC7B76EA277","mode":0,"speed":1.0,"type":"speed"},{"curve_speed":null,"id":"95DD9D8C-F4A5-4347-991C-9377219A0D6A","mode":0,"speed":1.0,"type":"speed"},{"curve_speed":null,"id":"1F957FB2-D504-4e9f-95F9-6EF233CFC431","mode":0,"speed":1.0,"type":"speed"},{"curve_speed":null,"id":"0A08D7FA-593E-4110-9DDA-E168765E8242","mode":0,"speed":1.0,"type":"speed"},{"curve_speed":null,"id":"FCBBE232-79A3-4571-8396-44E100B943C5","mode":0,"speed":1.0,"type":"speed"},{"curve_speed":null,"id":"B2703849-C9FB-416e-8877-02192D97F596","mode":0,"speed":1.0,"type":"speed"}],"stickers":[],"tail_leaders":[],"text_templates":[],"texts":[],"time_marks":[],"transitions":[{"category_id":"123456","category_name":"Transitions","duration":466666,"effect_id":"3202394","id":"6D44AC64-775A-4377-B3D1-D2C88B96E979","is_overlap":true,"name":"Mix","path":"C:/Users/Computer/AppData/Local/CapCut/User Data/Cache/effect/3202394/6f18fb242b64f9641da79aa773a33687","platform":"all","request_id":"20250920184613010191117011408ADFD","resource_id":"6943605272933831169","type":"transition"},{"category_id":"123456","category_name":"Transitions","duration":466666,"effect_id":"3202394","id":"0CEB925B-EF6B-45c0-90F5-ECEF18843B51","is_overlap":true,"name":"Mix","path":"C:/Users/Computer/AppData/Local/CapCut/User Data/Cache/effect/3202394/6f18fb242b64f9641da79aa773a33687","platform":"all","request_id":"20250920184613010191117011408ADFD","resource_id":"6943605272933831169","type":"transition"},{"category_id":"123456","category_name":"Transitions","duration":466666,"effect_id":"3202394","id":"BB8A6E66-1FDD-4995-BF6B-F2EE7437734E","is_overlap":true,"name":"Mix","path":"C:/Users/Computer/AppData/Local/CapCut/User Data/Cache/effect/3202394/6f18fb242b64f9641da79aa773a33687","platform":"all","request_id":"20250920184613010191117011408ADFD","resource_id":"6943605272933831169","type":"transition"},{"category_id":"123456","category_name":"Transitions","duration":466666,"effect_id":"3202394","id":"244E8299-6002-4036-A313-A9C52F8D0204","is_overlap":true,"name":"Mix","path":"C:/Users/Computer/AppData/Local/CapCut/User Data/Cache/effect/3202394/6f18fb242b64f9641da79aa773a33687","platform":"all","request_id":"20250920184613010191117011408ADFD","resource_id":"6943605272933831169","type":"transition"},{"category_id":"123456","category_name":"Transitions","duration":466666,"effect_id":"3202394","id":"66F8AF33-F8E3-4310-A0C0-E8068A3C552F","is_overlap":true,"name":"Mix","path":"C:/Users/Computer/AppData/Local/CapCut/User Data/Cache/effect/3202394/6f18fb242b64f9641da79aa773a33687","platform":"all","request_id":"20250920184613010191117011408ADFD","resource_id":"6943605272933831169","type":"transition"},{"category_id":"123456","category_name":"Transitions","duration":466666,"effect_id":"3202394","id":"02B2C8A5-8527-4723-ADF9-66E8CAD531D9","is_overlap":true,"name":"Mix","path":"C:/Users/Computer/AppData/Local/CapCut/User Data/Cache/effect/3202394/6f18fb242b64f9641da79aa773a33687","platform":"all","request_id":"20250920184613010191117011408ADFD","resource_id":"6943605272933831169","type":"transition"},{"category_id":"123456","category_name":"Transitions","duration":466666,"effect_id":"3202394","id":"8D47EAAF-506B-4fa1-8C50-6C6F16352DF1","is_overlap":true,"name":"Mix","path":"C:/Users/Computer/AppData/Local/CapCut/User Data/Cache/effect/3202394/6f18fb242b64f9641da79aa773a33687","platform":"all","request_id":"20250920184613010191117011408ADFD","resource_id":"6943605272933831169","type":"transition"},{"category_id":"123456","category_name":"Transitions","duration":466666,"effect_id":"3202394","id":"0CA57D97-D0D1-4982-8437-E0118C9DA5AD","is_overlap":true,"name":"Mix","path":"C:/Users/Computer/AppData/Local/CapCut/User Data/Cache/effect/3202394/6f18fb242b64f9641da79aa773a33687","platform":"all","request_id":"20250920184613010191117011408ADFD","resource_id":"6943605272933831169","type":"transition"},{"category_id":"123456","category_name":"Transitions","duration":466666,"effect_id":"3202394","id":"FD154E74-4E99-44d9-965F-E1A77E9EC651","is_overlap":true,"name":"Mix","path":"C:/Users/Computer/AppData/Local/CapCut/User Data/Cache/effect/3202394/6f18fb242b64f9641da79aa773a33687","platform":"all","request_id":"20250920184613010191117011408ADFD","resource_id":"6943605272933831169","type":"transition"},{"category_id":"123456","category_name":"Transitions","duration":466666,"effect_id":"3202394","id":"B8FD9A1E-DE93-4a2a-8CF1-584C35ECDB45","is_overlap":true,"name":"Mix","path":"C:/Users/Computer/AppData/Local/CapCut/User Data/Cache/effect/3202394/6f18fb242b64f9641da79aa773a33687","platform":"all","request_id":"20250920184613010191117011408ADFD","resource_id":"6943605272933831169","type":"transition"},{"category_id":"123456","category_name":"Transitions","duration":466666,"effect_id":"3202394","id":"EE23D024-9683-46a1-8EF5-6561D6F5F454","is_overlap":true,"name":"Mix","path":"C:/Users/Computer/AppData/Local/CapCut/User Data/Cache/effect/3202394/6f18fb242b64f9641da79aa773a33687","platform":"all","request_id":"20250920184613010191117011408ADFD","resource_id":"6943605272933831169","type":"transition"},{"category_id":"123456","category_name":"Transitions","duration":466666,"effect_id":"3202394","id":"8A0554E2-CCE8-40fb-8548-C40824C5B43E","is_overlap":true,"name":"Mix","path":"C:/Users/Computer/AppData/Local/CapCut/User Data/Cache/effect/3202394/6f18fb242b64f9641da79aa773a33687","platform":"all","request_id":"20250920184613010191117011408ADFD","resource_id":"6943605272933831169","type":"transition"},{"category_id":"123456","category_name":"Transitions","duration":466666,"effect_id":"3202394","id":"DE059BB3-D9C7-47ce-9534-BE4DBC645B72","is_overlap":true,"name":"Mix","path":"C:/Users/Computer/AppData/Local/CapCut/User Data/Cache/effect/3202394/6f18fb242b64f9641da79aa773a33687","platform":"all","request_id":"20250920184613010191117011408ADFD","resource_id":"6943605272933831169","type":"transition"},{"category_id":"123456","category_name":"Transitions","duration":466666,"effect_id":"3202394","id":"5B0C30B2-3851-41c8-B999-19FEC908A38C","is_overlap":true,"name":"Mix","path":"C:/Users/Computer/AppData/Local/CapCut/User Data/Cache/effect/3202394/6f18fb242b64f9641da79aa773a33687","platform":"all","request_id":"20250920184613010191117011408ADFD","resource_id":"6943605272933831169","type":"transition"},{"category_id":"123456","category_name":"Transitions","duration":466666,"effect_id":"3202394","id":"F6C56EEF-383A-452d-93BC-4323626B6399","is_overlap":true,"name":"Mix","path":"C:/Users/Computer/AppData/Local/CapCut/User Data/Cache/effect/3202394/6f18fb242b64f9641da79aa773a33687","platform":"all","request_id":"20250920184613010191117011408ADFD","resource_id":"6943605272933831169","type":"transition"},{"category_id":"123456","category_name":"Transitions","duration":466666,"effect_id":"3202394","id":"9C345274-BBDB-4585-9BBB-7F7216955EE5","is_overlap":true,"name":"Mix","path":"C:/Users/Computer/AppData/Local/CapCut/User Data/Cache/effect/3202394/6f18fb242b64f9641da79aa773a33687","platform":"all","request_id":"20250920184613010191117011408ADFD","resource_id":"6943605272933831169","type":"transition"},{"category_id":"123456","category_name":"Transitions","duration":466666,"effect_id":"3202394","id":"A97DE1AD-6C6D-43f5-AB2A-92842F2D4F6A","is_overlap":true,"name":"Mix","path":"C:/Users/Computer/AppData/Local/CapCut/User Data/Cache/effect/3202394/6f18fb242b64f9641da79aa773a33687","platform":"all","request_id":"20250920184613010191117011408ADFD","resource_id":"6943605272933831169","type":"transition"},{"category_id":"123456","category_name":"Transitions","duration":466666,"effect_id":"3202394","id":"58DF1B63-7A24-4eb4-A229-986E72DFC69C","is_overlap":true,"name":"Mix","path":"C:/Users/Computer/AppData/Local/CapCut/User Data/Cache/effect/3202394/6f18fb242b64f9641da79aa773a33687","platform":"all","request_id":"20250920184613010191117011408ADFD","resource_id":"6943605272933831169","type":"transition"},{"category_id":"123456","category_name":"Transitions","duration":466666,"effect_id":"3202394","id":"2AED7E8C-91D7-4f6d-A965-D0D04A76DC57","is_overlap":true,"name":"Mix","path":"C:/Users/Computer/AppData/Local/CapCut/User Data/Cache/effect/3202394/6f18fb242b64f9641da79aa773a33687","platform":"all","request_id":"20250920184613010191117011408ADFD","resource_id":"6943605272933831169","type":"transition"},{"category_id":"123456","category_name":"Transitions","duration":466666,"effect_id":"3202394","id":"A981FF04-AC17-4d14-BB5B-40B8C3E66668","is_overlap":true,"name":"Mix","path":"C:/Users/Computer/AppData/Local/CapCut/User Data/Cache/effect/3202394/6f18fb242b64f9641da79aa773a33687","platform":"all","request_id":"20250920184613010191117011408ADFD","resource_id":"6943605272933831169","type":"transition"},{"category_id":"123456","category_name":"Transitions","duration":466666,"effect_id":"3202394","id":"B2814116-6942-4044-AE37-EC7B4E4C0927","is_overlap":true,"name":"Mix","path":"C:/Users/Computer/AppData/Local/CapCut/User Data/Cache/effect/3202394/6f18fb242b64f9641da79aa773a33687","platform":"all","request_id":"20250920184613010191117011408ADFD","resource_id":"6943605272933831169","type":"transition"}],"video_effects":[],"video_trackings":[],"videos":[{"aigc_type":"none","audio_fade":null,"cartoon_path":"","category_id":"","category_name":"local","check_flag":63487,"crop":{"lower_left_x":0.0,"lower_left_y":1.0,"lower_right_x":1.0,"lower_right_y":1.0,"upper_left_x":0.0,"upper_left_y":0.0,"upper_right_x":1.0,"upper_right_y":0.0},"crop_ratio":"free","crop_scale":1.0,"duration":5000000,"extra_type_option":0,"formula_id":"","freeze":null,"has_audio":false,"height":720,"id":"4879F849-2791-42e1-A8A8-1F5B421C0FBC","intensifies_audio_path":"","intensifies_path":"","is_ai_generate_content":false,"is_copyright":false,"is_text_edit_overdub":false,"is_unified_beauty_mode":false,"local_id":"","local_material_id":"71841899-6b44-4a2d-9ff3-c16ad6c214e5","material_id":"","material_name":"001_20250920_2011_Bright Smile Mystery_storyboard_01k5mssb4kfxnrwhn87ga9v9j8.mp4","material_url":"","matting":{"flag":0,"has_use_quick_brush":false,"has_use_quick_eraser":false,"interactiveTime":[],"path":"","strokes":[]},"media_path":"","object_locked":null,"origin_material_id":"","path":"##_draftpath_placeholder_0E685133-18CE-45ED-8CB8-2904A212EC80_##/Resources/local/a266e6014fc38133dad31ad591397e58.mp4","picture_from":"none","picture_set_category_id":"","picture_set_category_name":"","request_id":"","reverse_intensifies_path":"","reverse_path":"","smart_motion":null,"source":0,"source_platform":0,"stable":{"matrix_path":"","stable_level":0,"time_range":{"duration":0,"start":0}},"team_id":"","type":"video","video_algorithm":{"algorithms":[],"complement_frame_config":null,"deflicker":null,"gameplay_configs":[],"motion_blur_config":null,"noise_reduction":null,"path":"","quality_enhance":null,"time_range":null},"width":1280},{"aigc_type":"none","audio_fade":null,"cartoon_path":"","category_id":"","category_name":"local","check_flag":63487,"crop":{"lower_left_x":0.0,"lower_left_y":1.0,"lower_right_x":1.0,"lower_right_y":1.0,"upper_left_x":0.0,"upper_left_y":0.0,"upper_right_x":1.0,"upper_right_y":0.0},"crop_ratio":"free","crop_scale":1.0,"duration":5000000,"extra_type_option":0,"formula_id":"","freeze":null,"has_audio":false,"height":720,"id":"65FFA430-8127-44ce-AF32-C1C0F13341E4","intensifies_audio_path":"","intensifies_path":"","is_ai_generate_content":false,"is_copyright":false,"is_text_edit_overdub":false,"is_unified_beauty_mode":false,"local_id":"","local_material_id":"09ac3fc5-c004-4657-9b5d-1e9411ced340","material_id":"","material_name":"005_20250920_2014_Nature's Tranquil Beauty_storyboard_01k5msz7phe4ds9x35m784hds4.mp4","material_url":"","matting":{"flag":0,"has_use_quick_brush":false,"has_use_quick_eraser":false,"interactiveTime":[],"path":"","strokes":[]},"media_path":"","object_locked":null,"origin_material_id":"","path":"##_draftpath_placeholder_0E685133-18CE-45ED-8CB8-2904A212EC80_##/Resources/local/5b8b0f06388c6f2266621042c050d484.mp4","picture_from":"none","picture_set_category_id":"","picture_set_category_name":"","request_id":"","reverse_intensifies_path":"","reverse_path":"","smart_motion":null,"source":0,"source_platform":0,"stable":{"matrix_path":"","stable_level":0,"time_range":{"duration":0,"start":0}},"team_id":"","type":"video","video_algorithm":{"algorithms":[],"complement_frame_config":null,"deflicker":null,"gameplay_configs":[],"motion_blur_config":null,"noise_reduction":null,"path":"","quality_enhance":null,"time_range":null},"width":1280},{"aigc_type":"none","audio_fade":null,"cartoon_path":"","category_id":"","category_name":"local","check_flag":63487,"crop":{"lower_left_x":0.0,"lower_left_y":1.0,"lower_right_x":1.0,"lower_right_y":1.0,"upper_left_x":0.0,"upper_left_y":0.0,"upper_right_x":1.0,"upper_right_y":0.0},"crop_ratio":"free","crop_scale":1.0,"duration":5000000,"extra_type_option":0,"formula_id":"","freeze":null,"has_audio":false,"height":720,"id":"1B3B15F9-01BD-4973-BB19-DF0E70B7EB92","intensifies_audio_path":"","intensifies_path":"","is_ai_generate_content":false,"is_copyright":false,"is_text_edit_overdub":false,"is_unified_beauty_mode":false,"local_id":"","local_material_id":"09ac3fc5-c004-4657-9b5d-1e9411ced340","material_id":"","material_name":"005_20250920_2014_Nature's Tranquil Beauty_storyboard_01k5msz7phe4ds9x35m784hds4.mp4","material_url":"","matting":{"flag":0,"has_use_quick_brush":false,"has_use_quick_eraser":false,"interactiveTime":[],"path":"","strokes":[]},"media_path":"","object_locked":null,"origin_material_id":"","path":"##_draftpath_placeholder_0E685133-18CE-45ED-8CB8-2904A212EC80_##/Resources/local/5b8b0f06388c6f2266621042c050d484.mp4","picture_from":"none","picture_set_category_id":"","picture_set_category_name":"","request_id":"","reverse_intensifies_path":"","reverse_path":"##_draftpath_placeholder_0E685133-18CE-45ED-8CB8-2904A212EC80_##/1ba8a1f6b6fc93d55ae474fe6a655ccb.mp4","smart_motion":null,"source":0,"source_platform":0,"stable":{"matrix_path":"","stable_level":0,"time_range":{"duration":0,"start":0}},"team_id":"","type":"video","video_algorithm":{"algorithms":[],"complement_frame_config":null,"deflicker":null,"gameplay_configs":[],"motion_blur_config":null,"noise_reduction":null,"path":"","quality_enhance":null,"time_range":null},"width":1280},{"aigc_type":"none","audio_fade":null,"cartoon_path":"","category_id":"","category_name":"local","check_flag":63487,"crop":{"lower_left_x":0.0,"lower_left_y":1.0,"lower_right_x":1.0,"lower_right_y":1.0,"upper_left_x":0.0,"upper_left_y":0.0,"upper_right_x":1.0,"upper_right_y":0.0},"crop_ratio":"free","crop_scale":1.0,"duration":5000000,"extra_type_option":0,"formula_id":"","freeze":null,"has_audio":false,"height":720,"id":"860B764B-5F87-462c-9794-D9A350B54C21","intensifies_audio_path":"","intensifies_path":"","is_ai_generate_content":false,"is_copyright":false,"is_text_edit_overdub":false,"is_unified_beauty_mode":false,"local_id":"","local_material_id":"71841899-6b44-4a2d-9ff3-c16ad6c214e5","material_id":"","material_name":"001_20250920_2011_Bright Smile Mystery_storyboard_01k5mssb4kfxnrwhn87ga9v9j8.mp4","material_url":"","matting":{"flag":0,"has_use_quick_brush":false,"has_use_quick_eraser":false,"interactiveTime":[],"path":"","strokes":[]},"media_path":"","object_locked":null,"origin_material_id":"","path":"##_draftpath_placeholder_0E685133-18CE-45ED-8CB8-2904A212EC80_##/Resources/local/a266e6014fc38133dad31ad591397e58.mp4","picture_from":"none","picture_set_category_id":"","picture_set_category_name":"","request_id":"","reverse_intensifies_path":"","reverse_path":"##_draftpath_placeholder_0E685133-18CE-45ED-8CB8-2904A212EC80_##/55d008e099061181477908781a11d37f.mp4","smart_motion":null,"source":0,"source_platform":0,"stable":{"matrix_path":"","stable_level":0,"time_range":{"duration":0,"start":0}},"team_id":"","type":"video","video_algorithm":{"algorithms":[],"complement_frame_config":null,"deflicker":null,"gameplay_configs":[],"motion_blur_config":null,"noise_reduction":null,"path":"","quality_enhance":null,"time_range":null},"width":1280},{"aigc_type":"none","audio_fade":null,"cartoon_path":"","category_id":"","category_name":"local","check_flag":63487,"crop":{"lower_left_x":0.0,"lower_left_y":1.0,"lower_right_x":1.0,"lower_right_y":1.0,"upper_left_x":0.0,"upper_left_y":0.0,"upper_right_x":1.0,"upper_right_y":0.0},"crop_ratio":"free","crop_scale":1.0,"duration":5000000,"extra_type_option":0,"formula_id":"","freeze":null,"has_audio":false,"height":720,"id":"B61A1D49-45BF-48ea-B692-4D4EB967B3EC","intensifies_audio_path":"","intensifies_path":"","is_ai_generate_content":false,"is_copyright":false,"is_text_edit_overdub":false,"is_unified_beauty_mode":false,"local_id":"","local_material_id":"71841899-6b44-4a2d-9ff3-c16ad6c214e5","material_id":"","material_name":"001_20250920_2011_Bright Smile Mystery_storyboard_01k5mssb4kfxnrwhn87ga9v9j8.mp4","material_url":"","matting":{"flag":0,"has_use_quick_brush":false,"has_use_quick_eraser":false,"interactiveTime":[],"path":"","strokes":[]},"media_path":"","object_locked":null,"origin_material_id":"","path":"##_draftpath_placeholder_0E685133-18CE-45ED-8CB8-2904A212EC80_##/Resources/local/a266e6014fc38133dad31ad591397e58.mp4","picture_from":"none","picture_set_category_id":"","picture_set_category_name":"","request_id":"","reverse_intensifies_path":"","reverse_path":"##_draftpath_placeholder_0E685133-18CE-45ED-8CB8-2904A212EC80_##/55d008e099061181477908781a11d37f.mp4","smart_motion":null,"source":0,"source_platform":0,"stable":{"matrix_path":"","stable_level":0,"time_range":{"duration":0,"start":0}},"team_id":"","type":"video","video_algorithm":{"algorithms":[],"complement_frame_config":null,"deflicker":null,"gameplay_configs":[],"motion_blur_config":null,"noise_reduction":null,"path":"","quality_enhance":null,"time_range":null},"width":1280},{"aigc_type":"none","audio_fade":null,"cartoon_path":"","category_id":"","category_name":"local","check_flag":63487,"crop":{"lower_left_x":0.0,"lower_left_y":1.0,"lower_right_x":1.0,"lower_right_y":1.0,"upper_left_x":0.0,"upper_left_y":0.0,"upper_right_x":1.0,"upper_right_y":0.0},"crop_ratio":"free","crop_scale":1.0,"duration":5000000,"extra_type_option":0,"formula_id":"","freeze":null,"has_audio":false,"height":720,"id":"D0810F98-09E2-4b12-85FF-8DABB00DA22B","intensifies_audio_path":"","intensifies_path":"","is_ai_generate_content":false,"is_copyright":false,"is_text_edit_overdub":false,"is_unified_beauty_mode":false,"local_id":"","local_material_id":"71841899-6b44-4a2d-9ff3-c16ad6c214e5","material_id":"","material_name":"001_20250920_2011_Bright Smile Mystery_storyboard_01k5mssb4kfxnrwhn87ga9v9j8.mp4","material_url":"","matting":{"flag":0,"has_use_quick_brush":false,"has_use_quick_eraser":false,"interactiveTime":[],"path":"","strokes":[]},"media_path":"","object_locked":null,"origin_material_id":"","path":"##_draftpath_placeholder_0E685133-18CE-45ED-8CB8-2904A212EC80_##/Resources/local/a266e6014fc38133dad31ad591397e58.mp4","picture_from":"none","picture_set_category_id":"","picture_set_category_name":"","request_id":"","reverse_intensifies_path":"","reverse_path":"##_draftpath_placeholder_0E685133-18CE-45ED-8CB8-2904A212EC80_##/55d008e099061181477908781a11d37f.mp4","smart_motion":null,"source":0,"source_platform":0,"stable":{"matrix_path":"","stable_level":0,"time_range":{"duration":0,"start":0}},"team_id":"","type":"video","video_algorithm":{"algorithms":[],"complement_frame_config":null,"deflicker":null,"gameplay_configs":[],"motion_blur_config":null,"noise_reduction":null,"path":"","quality_enhance":null,"time_range":null},"width":1280},{"aigc_type":"none","audio_fade":null,"cartoon_path":"","category_id":"","category_name":"local","check_flag":63487,"crop":{"lower_left_x":0.0,"lower_left_y":1.0,"lower_right_x":1.0,"lower_right_y":1.0,"upper_left_x":0.0,"upper_left_y":0.0,"upper_right_x":1.0,"upper_right_y":0.0},"crop_ratio":"free","crop_scale":1.0,"duration":5000000,"extra_type_option":0,"formula_id":"","freeze":null,"has_audio":false,"height":720,"id":"C66CC50C-63B2-4c17-BCFA-7C53FAF19B4F","intensifies_audio_path":"","intensifies_path":"","is_ai_generate_content":false,"is_copyright":false,"is_text_edit_overdub":false,"is_unified_beauty_mode":false,"local_id":"","local_material_id":"9811be24-28e0-4e11-875e-f0bd9d47f924","material_id":"","material_name":"002_20250920_2011_Bright Smile Mystery_storyboard_01k5mssb5ber6tmsyrm97w3fsh.mp4","material_url":"","matting":{"flag":0,"has_use_quick_brush":false,"has_use_quick_eraser":false,"interactiveTime":[],"path":"","strokes":[]},"media_path":"","object_locked":null,"origin_material_id":"","path":"##_draftpath_placeholder_0E685133-18CE-45ED-8CB8-2904A212EC80_##/Resources/local/03ee8d028fe887833e30db9ce4b14891.mp4","picture_from":"none","picture_set_category_id":"","picture_set_category_name":"","request_id":"","reverse_intensifies_path":"","reverse_path":"","smart_motion":null,"source":0,"source_platform":0,"stable":{"matrix_path":"","stable_level":0,"time_range":{"duration":0,"start":0}},"team_id":"","type":"video","video_algorithm":{"algorithms":[],"complement_frame_config":null,"deflicker":null,"gameplay_configs":[],"motion_blur_config":null,"noise_reduction":null,"path":"","quality_enhance":null,"time_range":null},"width":1280},{"aigc_type":"none","audio_fade":null,"cartoon_path":"","category_id":"","category_name":"local","check_flag":63487,"crop":{"lower_left_x":0.0,"lower_left_y":1.0,"lower_right_x":1.0,"lower_right_y":1.0,"upper_left_x":0.0,"upper_left_y":0.0,"upper_right_x":1.0,"upper_right_y":0.0},"crop_ratio":"free","crop_scale":1.0,"duration":5000000,"extra_type_option":0,"formula_id":"","freeze":null,"has_audio":false,"height":720,"id":"F9F7CFDD-FA75-4440-B7FE-F1F762A2FEDE","intensifies_audio_path":"","intensifies_path":"","is_ai_generate_content":false,"is_copyright":false,"is_text_edit_overdub":false,"is_unified_beauty_mode":false,"local_id":"","local_material_id":"86cf4d1a-e984-472c-b48d-d768616df89c","material_id":"","material_name":"003_20250920_2013_No Prompt Available_storyboard_01k5mswsmyf6zajwbg6gsv81t8.mp4","material_url":"","matting":{"flag":0,"has_use_quick_brush":false,"has_use_quick_eraser":false,"interactiveTime":[],"path":"","strokes":[]},"media_path":"","object_locked":null,"origin_material_id":"","path":"##_draftpath_placeholder_0E685133-18CE-45ED-8CB8-2904A212EC80_##/Resources/local/1dc5e3b3b1664f3838c9c203ff81abb4.mp4","picture_from":"none","picture_set_category_id":"","picture_set_category_name":"","request_id":"","reverse_intensifies_path":"","reverse_path":"","smart_motion":null,"source":0,"source_platform":0,"stable":{"matrix_path":"","stable_level":0,"time_range":{"duration":0,"start":0}},"team_id":"","type":"video","video_algorithm":{"algorithms":[],"complement_frame_config":null,"deflicker":null,"gameplay_configs":[],"motion_blur_config":null,"noise_reduction":null,"path":"","quality_enhance":null,"time_range":null},"width":1280},{"aigc_type":"none","audio_fade":null,"cartoon_path":"","category_id":"","category_name":"local","check_flag":63487,"crop":{"lower_left_x":0.0,"lower_left_y":1.0,"lower_right_x":1.0,"lower_right_y":1.0,"upper_left_x":0.0,"upper_left_y":0.0,"upper_right_x":1.0,"upper_right_y":0.0},"crop_ratio":"free","crop_scale":1.0,"duration":5000000,"extra_type_option":0,"formula_id":"","freeze":null,"has_audio":false,"height":720,"id":"D7FE2209-6A6A-4209-B627-561132587C76","intensifies_audio_path":"","intensifies_path":"","is_ai_generate_content":false,"is_copyright":false,"is_text_edit_overdub":false,"is_unified_beauty_mode":false,"local_id":"","local_material_id":"86cf4d1a-e984-472c-b48d-d768616df89c","material_id":"","material_name":"003_20250920_2013_No Prompt Available_storyboard_01k5mswsmyf6zajwbg6gsv81t8.mp4","material_url":"","matting":{"flag":0,"has_use_quick_brush":false,"has_use_quick_eraser":false,"interactiveTime":[],"path":"","strokes":[]},"media_path":"","object_locked":null,"origin_material_id":"","path":"##_draftpath_placeholder_0E685133-18CE-45ED-8CB8-2904A212EC80_##/Resources/local/1dc5e3b3b1664f3838c9c203ff81abb4.mp4","picture_from":"none","picture_set_category_id":"","picture_set_category_name":"","request_id":"","reverse_intensifies_path":"","reverse_path":"##_draftpath_placeholder_0E685133-18CE-45ED-8CB8-2904A212EC80_##/a247276a991c45e0fdf48774c7fbcba5.mp4","smart_motion":null,"source":0,"source_platform":0,"stable":{"matrix_path":"","stable_level":0,"time_range":{"duration":0,"start":0}},"team_id":"","type":"video","video_algorithm":{"algorithms":[],"complement_frame_config":null,"deflicker":null,"gameplay_configs":[],"motion_blur_config":null,"noise_reduction":null,"path":"","quality_enhance":null,"time_range":null},"width":1280},{"aigc_type":"none","audio_fade":null,"cartoon_path":"","category_id":"","category_name":"local","check_flag":63487,"crop":{"lower_left_x":0.0,"lower_left_y":1.0,"lower_right_x":1.0,"lower_right_y":1.0,"upper_left_x":0.0,"upper_left_y":0.0,"upper_right_x":1.0,"upper_right_y":0.0},"crop_ratio":"free","crop_scale":1.0,"duration":5000000,"extra_type_option":0,"formula_id":"","freeze":null,"has_audio":false,"height":720,"id":"770A5E7A-2CE7-49a1-BA67-FF567CC6FBD0","intensifies_audio_path":"","intensifies_path":"","is_ai_generate_content":false,"is_copyright":false,"is_text_edit_overdub":false,"is_unified_beauty_mode":false,"local_id":"","local_material_id":"b8d3897f-4397-4deb-9b64-658d3c178338","material_id":"","material_name":"004_20250920_2013_No Prompt Available_storyboard_01k5mswtm1fsqa781se2wykaa2.mp4","material_url":"","matting":{"flag":0,"has_use_quick_brush":false,"has_use_quick_eraser":false,"interactiveTime":[],"path":"","strokes":[]},"media_path":"","object_locked":null,"origin_material_id":"","path":"##_draftpath_placeholder_0E685133-18CE-45ED-8CB8-2904A212EC80_##/Resources/local/350c121c6887860267bed557fd76bd56.mp4","picture_from":"none","picture_set_category_id":"","picture_set_category_name":"","request_id":"","reverse_intensifies_path":"","reverse_path":"","smart_motion":null,"source":0,"source_platform":0,"stable":{"matrix_path":"","stable_level":0,"time_range":{"duration":0,"start":0}},"team_id":"","type":"video","video_algorithm":{"algorithms":[],"complement_frame_config":null,"deflicker":null,"gameplay_configs":[],"motion_blur_config":null,"noise_reduction":null,"path":"","quality_enhance":null,"time_range":null},"width":1280},{"aigc_type":"none","audio_fade":null,"cartoon_path":"","category_id":"","category_name":"local","check_flag":63487,"crop":{"lower_left_x":0.0,"lower_left_y":1.0,"lower_right_x":1.0,"lower_right_y":1.0,"upper_left_x":0.0,"upper_left_y":0.0,"upper_right_x":1.0,"upper_right_y":0.0},"crop_ratio":"free","crop_scale":1.0,"duration":5000000,"extra_type_option":0,"formula_id":"","freeze":null,"has_audio":false,"height":720,"id":"8E60B263-FCD6-4174-BBF8-D22B974DD865","intensifies_audio_path":"","intensifies_path":"","is_ai_generate_content":false,"is_copyright":false,"is_text_edit_overdub":false,"is_unified_beauty_mode":false,"local_id":"","local_material_id":"adc2f176-2127-4767-9ced-c9bcbad9c061","material_id":"","material_name":"009_20250920_2015_No Prompt Provided_storyboard_01k5mt10hqebmvv6d3rdvvvpe9.mp4","material_url":"","matting":{"flag":0,"has_use_quick_brush":false,"has_use_quick_eraser":false,"interactiveTime":[],"path":"","strokes":[]},"media_path":"","object_locked":null,"origin_material_id":"","path":"##_draftpath_placeholder_0E685133-18CE-45ED-8CB8-2904A212EC80_##/Resources/local/f3f3a565d47844cee0ca666b4d9712f3.mp4","picture_from":"none","picture_set_category_id":"","picture_set_category_name":"","request_id":"","reverse_intensifies_path":"","reverse_path":"","smart_motion":null,"source":0,"source_platform":0,"stable":{"matrix_path":"","stable_level":0,"time_range":{"duration":0,"start":0}},"team_id":"","type":"video","video_algorithm":{"algorithms":[],"complement_frame_config":null,"deflicker":null,"gameplay_configs":[],"motion_blur_config":null,"noise_reduction":null,"path":"","quality_enhance":null,"time_range":null},"width":1280},{"aigc_type":"none","audio_fade":null,"cartoon_path":"","category_id":"","category_name":"local","check_flag":63487,"crop":{"lower_left_x":0.0,"lower_left_y":1.0,"lower_right_x":1.0,"lower_right_y":1.0,"upper_left_x":0.0,"upper_left_y":0.0,"upper_right_x":1.0,"upper_right_y":0.0},"crop_ratio":"free","crop_scale":1.0,"duration":5000000,"extra_type_option":0,"formula_id":"","freeze":null,"has_audio":false,"height":720,"id":"5554460D-82A4-4531-AA5C-B42CAC2E96C1","intensifies_audio_path":"","intensifies_path":"","is_ai_generate_content":false,"is_copyright":false,"is_text_edit_overdub":false,"is_unified_beauty_mode":false,"local_id":"","local_material_id":"d9a66404-7955-4136-989a-ae9e2410b4ce","material_id":"","material_name":"011_20250921_0733_Unknown Scene Imagery_storyboard_01k5p0swece3jawsbzc5mjsw9s.mp4","material_url":"","matting":{"flag":0,"has_use_quick_brush":false,"has_use_quick_eraser":false,"interactiveTime":[],"path":"","strokes":[]},"media_path":"","object_locked":null,"origin_material_id":"","path":"##_draftpath_placeholder_0E685133-18CE-45ED-8CB8-2904A212EC80_##/Resources/local/fb3a703a355dfd2fb6976cebedc0250a.mp4","picture_from":"none","picture_set_category_id":"","picture_set_category_name":"","request_id":"","reverse_intensifies_path":"","reverse_path":"","smart_motion":null,"source":0,"source_platform":0,"stable":{"matrix_path":"","stable_level":0,"time_range":{"duration":0,"start":0}},"team_id":"","type":"video","video_algorithm":{"algorithms":[],"complement_frame_config":null,"deflicker":null,"gameplay_configs":[],"motion_blur_config":null,"noise_reduction":null,"path":"","quality_enhance":null,"time_range":null},"width":1280},{"aigc_type":"none","audio_fade":null,"cartoon_path":"","category_id":"","category_name":"local","check_flag":63487,"crop":{"lower_left_x":0.0,"lower_left_y":1.0,"lower_right_x":1.0,"lower_right_y":1.0,"upper_left_x":0.0,"upper_left_y":0.0,"upper_right_x":1.0,"upper_right_y":0.0},"crop_ratio":"free","crop_scale":1.0,"duration":5000000,"extra_type_option":0,"formula_id":"","freeze":null,"has_audio":false,"height":720,"id":"180536E4-8E2E-402c-AE05-64F9F9A9C0F6","intensifies_audio_path":"","intensifies_path":"","is_ai_generate_content":false,"is_copyright":false,"is_text_edit_overdub":false,"is_unified_beauty_mode":false,"local_id":"","local_material_id":"8184d3f6-3f77-4fde-bc46-289f210cce46","material_id":"","material_name":"012_20250921_0734_Awaiting Scene Description_storyboard_01k5p0w859fe79ws9f6yg3p1wz.mp4","material_url":"","matting":{"flag":0,"has_use_quick_brush":false,"has_use_quick_eraser":false,"interactiveTime":[],"path":"","strokes":[]},"media_path":"","object_locked":null,"origin_material_id":"","path":"##_draftpath_placeholder_0E685133-18CE-45ED-8CB8-2904A212EC80_##/Resources/local/6e1761bdf26f80faa78a19eec82c0aee.mp4","picture_from":"none","picture_set_category_id":"","picture_set_category_name":"","request_id":"","reverse_intensifies_path":"","reverse_path":"","smart_motion":null,"source":0,"source_platform":0,"stable":{"matrix_path":"","stable_level":0,"time_range":{"duration":0,"start":0}},"team_id":"","type":"video","video_algorithm":{"algorithms":[],"complement_frame_config":null,"deflicker":null,"gameplay_configs":[],"motion_blur_config":null,"noise_reduction":null,"path":"","quality_enhance":null,"time_range":null},"width":1280},{"aigc_type":"none","audio_fade":null,"cartoon_path":"","category_id":"","category_name":"local","check_flag":63487,"crop":{"lower_left_x":0.0,"lower_left_y":1.0,"lower_right_x":1.0,"lower_right_y":1.0,"upper_left_x":0.0,"upper_left_y":0.0,"upper_right_x":1.0,"upper_right_y":0.0},"crop_ratio":"free","crop_scale":1.0,"duration":5000000,"extra_type_option":0,"formula_id":"","freeze":null,"has_audio":false,"height":720,"id":"5190D16A-8F5F-47c2-B75B-2109033F12FE","intensifies_audio_path":"","intensifies_path":"","is_ai_generate_content":false,"is_copyright":false,"is_text_edit_overdub":false,"is_unified_beauty_mode":false,"local_id":"","local_material_id":"d6ec584b-65fe-4922-969d-c0834b42c12d","material_id":"","material_name":"013_20250921_0736_Missing Scene Description_storyboard_01k5p0z4zren1rmcc8chb7tyg7.mp4","material_url":"","matting":{"flag":0,"has_use_quick_brush":false,"has_use_quick_eraser":false,"interactiveTime":[],"path":"","strokes":[]},"media_path":"","object_locked":null,"origin_material_id":"","path":"##_draftpath_placeholder_0E685133-18CE-45ED-8CB8-2904A212EC80_##/Resources/local/e118483f5c381cf0c96890f01f7b1ec6.mp4","picture_from":"none","picture_set_category_id":"","picture_set_category_name":"","request_id":"","reverse_intensifies_path":"","reverse_path":"","smart_motion":null,"source":0,"source_platform":0,"stable":{"matrix_path":"","stable_level":0,"time_range":{"duration":0,"start":0}},"team_id":"","type":"video","video_algorithm":{"algorithms":[],"complement_frame_config":null,"deflicker":null,"gameplay_configs":[],"motion_blur_config":null,"noise_reduction":null,"path":"","quality_enhance":null,"time_range":null},"width":1280},{"aigc_type":"none","audio_fade":null,"cartoon_path":"","category_id":"","category_name":"local","check_flag":63487,"crop":{"lower_left_x":0.0,"lower_left_y":1.0,"lower_right_x":1.0,"lower_right_y":1.0,"upper_left_x":0.0,"upper_left_y":0.0,"upper_right_x":1.0,"upper_right_y":0.0},"crop_ratio":"free","crop_scale":1.0,"duration":5000000,"extra_type_option":0,"formula_id":"","freeze":null,"has_audio":false,"height":720,"id":"90F8EF8C-F4F2-47b1-8092-AA531734440E","intensifies_audio_path":"","intensifies_path":"","is_ai_generate_content":false,"is_copyright":false,"is_text_edit_overdub":false,"is_unified_beauty_mode":false,"local_id":"","local_material_id":"9aecbce0-a8fd-4fe7-816f-2391d7e9e1d4","material_id":"","material_name":"014_20250921_0737_Abstract Imagery Exploration_storyboard_01k5p11ddhe2fsa48cj2n7sqgf.mp4","material_url":"","matting":{"flag":0,"has_use_quick_brush":false,"has_use_quick_eraser":false,"interactiveTime":[],"path":"","strokes":[]},"media_path":"","object_locked":null,"origin_material_id":"","path":"##_draftpath_placeholder_0E685133-18CE-45ED-8CB8-2904A212EC80_##/Resources/local/5a96c487c016ad3925bd1c7ddb27dd1d.mp4","picture_from":"none","picture_set_category_id":"","picture_set_category_name":"","request_id":"","reverse_intensifies_path":"","reverse_path":"","smart_motion":null,"source":0,"source_platform":0,"stable":{"matrix_path":"","stable_level":0,"time_range":{"duration":0,"start":0}},"team_id":"","type":"video","video_algorithm":{"algorithms":[],"complement_frame_config":null,"deflicker":null,"gameplay_configs":[],"motion_blur_config":null,"noise_reduction":null,"path":"","quality_enhance":null,"time_range":null},"width":1280},{"aigc_type":"none","audio_fade":null,"cartoon_path":"","category_id":"","category_name":"local","check_flag":63487,"crop":{"lower_left_x":0.0,"lower_left_y":1.0,"lower_right_x":1.0,"lower_right_y":1.0,"upper_left_x":0.0,"upper_left_y":0.0,"upper_right_x":1.0,"upper_right_y":0.0},"crop_ratio":"free","crop_scale":1.0,"duration":5000000,"extra_type_option":0,"formula_id":"","freeze":null,"has_audio":false,"height":720,"id":"83ED2557-5118-430e-B472-DDB6892C2D7E","intensifies_audio_path":"","intensifies_path":"","is_ai_generate_content":false,"is_copyright":false,"is_text_edit_overdub":false,"is_unified_beauty_mode":false,"local_id":"","local_material_id":"f6b80f05-4aa6-421a-bbd5-27b592988047","material_id":"","material_name":"016_20250921_0739_Nature's Serenity_storyboard_01k5p15398fgyvcesqsyckt987.mp4","material_url":"","matting":{"flag":0,"has_use_quick_brush":false,"has_use_quick_eraser":false,"interactiveTime":[],"path":"","strokes":[]},"media_path":"","object_locked":null,"origin_material_id":"","path":"##_draftpath_placeholder_0E685133-18CE-45ED-8CB8-2904A212EC80_##/Resources/local/9f582b2eb8de0c798d8682ca86555412.mp4","picture_from":"none","picture_set_category_id":"","picture_set_category_name":"","request_id":"","reverse_intensifies_path":"","reverse_path":"","smart_motion":null,"source":0,"source_platform":0,"stable":{"matrix_path":"","stable_level":0,"time_range":{"duration":0,"start":0}},"team_id":"","type":"video","video_algorithm":{"algorithms":[],"complement_frame_config":null,"deflicker":null,"gameplay_configs":[],"motion_blur_config":null,"noise_reduction":null,"path":"","quality_enhance":null,"time_range":null},"width":1280},{"aigc_type":"none","audio_fade":null,"cartoon_path":"","category_id":"","category_name":"local","check_flag":63487,"crop":{"lower_left_x":0.0,"lower_left_y":1.0,"lower_right_x":1.0,"lower_right_y":1.0,"upper_left_x":0.0,"upper_left_y":0.0,"upper_right_x":1.0,"upper_right_y":0.0},"crop_ratio":"free","crop_scale":1.0,"duration":5000000,"extra_type_option":0,"formula_id":"","freeze":null,"has_audio":false,"height":720,"id":"80671086-2E51-4107-BFAE-588E5BEBF8D7","intensifies_audio_path":"","intensifies_path":"","is_ai_generate_content":false,"is_copyright":false,"is_text_edit_overdub":false,"is_unified_beauty_mode":false,"local_id":"","local_material_id":"f6b80f05-4aa6-421a-bbd5-27b592988047","material_id":"","material_name":"016_20250921_0739_Nature's Serenity_storyboard_01k5p15398fgyvcesqsyckt987.mp4","material_url":"","matting":{"flag":0,"has_use_quick_brush":false,"has_use_quick_eraser":false,"interactiveTime":[],"path":"","strokes":[]},"media_path":"","object_locked":null,"origin_material_id":"","path":"##_draftpath_placeholder_0E685133-18CE-45ED-8CB8-2904A212EC80_##/Resources/local/9f582b2eb8de0c798d8682ca86555412.mp4","picture_from":"none","picture_set_category_id":"","picture_set_category_name":"","request_id":"","reverse_intensifies_path":"","reverse_path":"##_draftpath_placeholder_0E685133-18CE-45ED-8CB8-2904A212EC80_##/b85828c03327677a0c67c36e79675f73.mp4","smart_motion":null,"source":0,"source_platform":0,"stable":{"matrix_path":"","stable_level":0,"time_range":{"duration":0,"start":0}},"team_id":"","type":"video","video_algorithm":{"algorithms":[],"complement_frame_config":null,"deflicker":null,"gameplay_configs":[],"motion_blur_config":null,"noise_reduction":null,"path":"","quality_enhance":null,"time_range":null},"width":1280},{"aigc_type":"none","audio_fade":null,"cartoon_path":"","category_id":"","category_name":"local","check_flag":63487,"crop":{"lower_left_x":0.0,"lower_left_y":1.0,"lower_right_x":1.0,"lower_right_y":1.0,"upper_left_x":0.0,"upper_left_y":0.0,"upper_right_x":1.0,"upper_right_y":0.0},"crop_ratio":"free","crop_scale":1.0,"duration":5000000,"extra_type_option":0,"formula_id":"","freeze":null,"has_audio":false,"height":720,"id":"4D3F3E73-8AC6-46a2-AD4E-2CACA981C0AA","intensifies_audio_path":"","intensifies_path":"","is_ai_generate_content":false,"is_copyright":false,"is_text_edit_overdub":false,"is_unified_beauty_mode":false,"local_id":"","local_material_id":"3e63f976-41a0-4440-8e51-ec69f13ac1c1","material_id":"","material_name":"015_20250921_0739_Nature's Serenity_storyboard_01k5p15390e3ab0vsdtvwr7smv.mp4","material_url":"","matting":{"flag":0,"has_use_quick_brush":false,"has_use_quick_eraser":false,"interactiveTime":[],"path":"","strokes":[]},"media_path":"","object_locked":null,"origin_material_id":"","path":"##_draftpath_placeholder_0E685133-18CE-45ED-8CB8-2904A212EC80_##/Resources/local/6a7e715b42baa2c0c28e76f090075c8e.mp4","picture_from":"none","picture_set_category_id":"","picture_set_category_name":"","request_id":"","reverse_intensifies_path":"","reverse_path":"","smart_motion":null,"source":0,"source_platform":0,"stable":{"matrix_path":"","stable_level":0,"time_range":{"duration":0,"start":0}},"team_id":"","type":"video","video_algorithm":{"algorithms":[],"complement_frame_config":null,"deflicker":null,"gameplay_configs":[],"motion_blur_config":null,"noise_reduction":null,"path":"","quality_enhance":null,"time_range":null},"width":1280},{"aigc_type":"none","audio_fade":null,"cartoon_path":"","category_id":"","category_name":"local","check_flag":63487,"crop":{"lower_left_x":0.0,"lower_left_y":1.0,"lower_right_x":1.0,"lower_right_y":1.0,"upper_left_x":0.0,"upper_left_y":0.0,"upper_right_x":1.0,"upper_right_y":0.0},"crop_ratio":"free","crop_scale":1.0,"duration":5000000,"extra_type_option":0,"formula_id":"","freeze":null,"has_audio":false,"height":720,"id":"65BD59B4-5A7A-48f4-A70C-6684BDC54213","intensifies_audio_path":"","intensifies_path":"","is_ai_generate_content":false,"is_copyright":false,"is_text_edit_overdub":false,"is_unified_beauty_mode":false,"local_id":"","local_material_id":"2c55a5fe-1842-4432-9dc8-ae358918ec9e","material_id":"","material_name":"017_20250921_0744_Awaiting User Prompt_storyboard_01k5p1edw4e4r87dckrdm44v5w.mp4","material_url":"","matting":{"flag":0,"has_use_quick_brush":false,"has_use_quick_eraser":false,"interactiveTime":[],"path":"","strokes":[]},"media_path":"","object_locked":null,"origin_material_id":"","path":"##_draftpath_placeholder_0E685133-18CE-45ED-8CB8-2904A212EC80_##/Resources/local/6ae456651ba61a35d42d8afc3c416ebf.mp4","picture_from":"none","picture_set_category_id":"","picture_set_category_name":"","request_id":"","reverse_intensifies_path":"","reverse_path":"","smart_motion":null,"source":0,"source_platform":0,"stable":{"matrix_path":"","stable_level":0,"time_range":{"duration":0,"start":0}},"team_id":"","type":"video","video_algorithm":{"algorithms":[],"complement_frame_config":null,"deflicker":null,"gameplay_configs":[],"motion_blur_config":null,"noise_reduction":null,"path":"","quality_enhance":null,"time_range":null},"width":1280},{"aigc_type":"none","audio_fade":null,"cartoon_path":"","category_id":"","category_name":"local","check_flag":63487,"crop":{"lower_left_x":0.0,"lower_left_y":1.0,"lower_right_x":1.0,"lower_right_y":1.0,"upper_left_x":0.0,"upper_left_y":0.0,"upper_right_x":1.0,"upper_right_y":0.0},"crop_ratio":"free","crop_scale":1.0,"duration":5000000,"extra_type_option":0,"formula_id":"","freeze":null,"has_audio":false,"height":720,"id":"5CA20CBD-135F-475a-877E-3918E6D22E71","intensifies_audio_path":"","intensifies_path":"","is_ai_generate_content":false,"is_copyright":false,"is_text_edit_overdub":false,"is_unified_beauty_mode":false,"local_id":"","local_material_id":"bc9db98b-4bb2-4935-9c8f-c051663cbaf0","material_id":"","material_name":"018_20250921_0746_Title Pending_storyboard_01k5p1j0gbeq6v0gdhhqt34j4n.mp4","material_url":"","matting":{"flag":0,"has_use_quick_brush":false,"has_use_quick_eraser":false,"interactiveTime":[],"path":"","strokes":[]},"media_path":"","object_locked":null,"origin_material_id":"","path":"##_draftpath_placeholder_0E685133-18CE-45ED-8CB8-2904A212EC80_##/Resources/local/1d4e22c285e6931b92a01c933b6a0aba.mp4","picture_from":"none","picture_set_category_id":"","picture_set_category_name":"","request_id":"","reverse_intensifies_path":"","reverse_path":"","smart_motion":null,"source":0,"source_platform":0,"stable":{"matrix_path":"","stable_level":0,"time_range":{"duration":0,"start":0}},"team_id":"","type":"video","video_algorithm":{"algorithms":[],"complement_frame_config":null,"deflicker":null,"gameplay_configs":[],"motion_blur_config":null,"noise_reduction":null,"path":"","quality_enhance":null,"time_range":null},"width":1280},{"aigc_type":"none","audio_fade":null,"cartoon_path":"","category_id":"","category_name":"local","check_flag":63487,"crop":{"lower_left_x":0.0,"lower_left_y":1.0,"lower_right_x":1.0,"lower_right_y":1.0,"upper_left_x":0.0,"upper_left_y":0.0,"upper_right_x":1.0,"upper_right_y":0.0},"crop_ratio":"free","crop_scale":1.0,"duration":5000000,"extra_type_option":0,"formula_id":"","freeze":null,"has_audio":false,"height":720,"id":"E306B0E0-55EF-4745-8439-12699D8518C9","intensifies_audio_path":"","intensifies_path":"","is_ai_generate_content":false,"is_copyright":false,"is_text_edit_overdub":false,"is_unified_beauty_mode":false,"local_id":"","local_material_id":"949e29c7-bc25-4692-894e-e9e656b41062","material_id":"","material_name":"019_20250921_0747_Imagery Captured Moments_storyboard_01k5p1m5g5f0j9rx2b5r58f812.mp4","material_url":"","matting":{"flag":0,"has_use_quick_brush":false,"has_use_quick_eraser":false,"interactiveTime":[],"path":"","strokes":[]},"media_path":"","object_locked":null,"origin_material_id":"","path":"##_draftpath_placeholder_0E685133-18CE-45ED-8CB8-2904A212EC80_##/Resources/local/79b27e9fc84254a2df1c9b4bbd620017.mp4","picture_from":"none","picture_set_category_id":"","picture_set_category_name":"","request_id":"","reverse_intensifies_path":"","reverse_path":"","smart_motion":null,"source":0,"source_platform":0,"stable":{"matrix_path":"","stable_level":0,"time_range":{"duration":0,"start":0}},"team_id":"","type":"video","video_algorithm":{"algorithms":[],"complement_frame_config":null,"deflicker":null,"gameplay_configs":[],"motion_blur_config":null,"noise_reduction":null,"path":"","quality_enhance":null,"time_range":null},"width":1280},{"aigc_type":"none","audio_fade":null,"cartoon_path":"","category_id":"","category_name":"local","check_flag":63487,"crop":{"lower_left_x":0.0,"lower_left_y":1.0,"lower_right_x":1.0,"lower_right_y":1.0,"upper_left_x":0.0,"upper_left_y":0.0,"upper_right_x":1.0,"upper_right_y":0.0},"crop_ratio":"free","crop_scale":1.0,"duration":5000000,"extra_type_option":0,"formula_id":"","freeze":null,"has_audio":false,"height":720,"id":"796298AC-8BB6-4ad2-864B-B6CCBC413D62","intensifies_audio_path":"","intensifies_path":"","is_ai_generate_content":false,"is_copyright":false,"is_text_edit_overdub":false,"is_unified_beauty_mode":false,"local_id":"","local_material_id":"f2d87c86-fb37-4665-8d27-ec91ef11fdce","material_id":"","material_name":"020_20250921_0749_Beautiful Image Collection_storyboard_01k5p1pxtwf40scfb0s1kahr1d.mp4","material_url":"","matting":{"flag":0,"has_use_quick_brush":false,"has_use_quick_eraser":false,"interactiveTime":[],"path":"","strokes":[]},"media_path":"","object_locked":null,"origin_material_id":"","path":"##_draftpath_placeholder_0E685133-18CE-45ED-8CB8-2904A212EC80_##/Resources/local/87f3fc49527ea26fa18e1dfc785332a4.mp4","picture_from":"none","picture_set_category_id":"","picture_set_category_name":"","request_id":"","reverse_intensifies_path":"","reverse_path":"","smart_motion":null,"source":0,"source_platform":0,"stable":{"matrix_path":"","stable_level":0,"time_range":{"duration":0,"start":0}},"team_id":"","type":"video","video_algorithm":{"algorithms":[],"complement_frame_config":null,"deflicker":null,"gameplay_configs":[],"motion_blur_config":null,"noise_reduction":null,"path":"","quality_enhance":null,"time_range":null},"width":1280}],"vocal_beautifys":[],"vocal_separations":[{"choice":0,"id":"BCCFF69D-5C2C-48d6-B02A-1A2AB7C95D39","production_path":"","time_range":null,"type":"vocal_separation"},{"choice":0,"id":"CC85A7C3-E7C6-4d20-ADF6-9A6DA50BF4AE","production_path":"","time_range":null,"type":"vocal_separation"},{"choice":0,"id":"FFBA32CE-596F-4c8c-91E5-DA73E66B635F","production_path":"","time_range":null,"type":"vocal_separation"},{"choice":0,"id":"B506823D-EA00-439c-8865-3D15111D50E8","production_path":"","time_range":null,"type":"vocal_separation"},{"choice":0,"id":"11B0AC6E-07BA-4feb-AAF3-3B03351CBE50","production_path":"","time_range":null,"type":"vocal_separation"},{"choice":0,"id":"964D7BCE-D4E2-4f29-B100-DE2D998D5E7F","production_path":"","time_range":null,"type":"vocal_separation"},{"choice":0,"id":"4F646373-7504-4ec2-ABB6-0354614B3C19","production_path":"","time_range":null,"type":"vocal_separation"},{"choice":0,"id":"AA89A742-D56E-42a1-B4A7-5C4B1AB5E59A","production_path":"","time_range":null,"type":"vocal_separation"},{"choice":0,"id":"E0B14721-1FA6-4672-B276-BCEDDC6F0CCA","production_path":"","time_range":null,"type":"vocal_separation"},{"choice":0,"id":"0B511BC7-2B4F-4a39-A75D-2AC324F4C214","production_path":"","time_range":null,"type":"vocal_separation"},{"choice":0,"id":"75BFFFD8-F74A-4ab7-B756-DFFC25E818D2","production_path":"","time_range":null,"type":"vocal_separation"},{"choice":0,"id":"F7FA158F-ABB0-4b7f-AA11-8345B524F516","production_path":"","time_range":null,"type":"vocal_separation"},{"choice":0,"id":"35CA1454-AC35-42aa-AA80-445827E4DD7D","production_path":"","time_range":null,"type":"vocal_separation"},{"choice":0,"id":"D35F75D2-A60C-401d-BFAC-11C616281CD8","production_path":"","time_range":null,"type":"vocal_separation"},{"choice":0,"id":"13E71BF9-AE92-40ab-A9DF-582B93A8F41A","production_path":"","time_range":null,"type":"vocal_separation"},{"choice":0,"id":"E12DE06D-1AB1-42a4-B0B2-5A05F68AC255","production_path":"","time_range":null,"type":"vocal_separation"},{"choice":0,"id":"D942F6BF-3B00-45af-88F7-C1D22F9C6FDE","production_path":"","time_range":null,"type":"vocal_separation"},{"choice":0,"id":"AC236A8A-BD63-4d68-BA7B-DE20095DB167","production_path":"","time_range":null,"type":"vocal_separation"},{"choice":0,"id":"33385469-9003-450e-974A-EC97217DB402","production_path":"","time_range":null,"type":"vocal_separation"},{"choice":0,"id":"239E65B5-77AD-4857-A422-DCA804D1BCBC","production_path":"","time_range":null,"type":"vocal_separation"},{"choice":0,"id":"7BD006C7-4CFE-4caa-B03B-DB65424A2E69","production_path":"","time_range":null,"type":"vocal_separation"},{"choice":0,"id":"59F59443-F058-44b4-AA39-4D40F948C81B","production_path":"","time_range":null,"type":"vocal_separation"}]},"mutable_config":null,"name":"","new_version":"110.0.0","platform":{"app_id":359289,"app_source":"cc","app_version":"3.9.0","device_id":"b000ef05ad8a2c8de98905bbc4a2a13d","hard_disk_id":"98697f5b2672733057711c84e4b517c3","mac_address":"3ab780bc59d11a00e1ba676c31de1115,09861091e4eef2367b35d8703476edfc","os":"windows","os_version":"10.0.26100"},"relationships":[],"render_index_track_mode_on":true,"retouch_cover":null,"source":"default","static_cover_image_path":"","time_marks":null,"tracks":[{"attribute":0,"flag":0,"id":"C1125C52-CEF7-4511-B7DD-449CBF610813","is_default_name":true,"name":"","segments":[{"caption_info":null,"cartoon":false,"clip":{"alpha":1.0,"flip":{"horizontal":false,"vertical":false},"rotation":0.0,"scale":{"x":1.0,"y":1.0},"transform":{"x":0.0,"y":0.0}},"common_keyframes":[],"enable_adjust":true,"enable_color_correct_adjust":false,"enable_color_curves":true,"enable_color_match_adjust":false,"enable_color_wheels":true,"enable_lut":true,"enable_smart_color_adjust":false,"extra_material_refs":["70D17F38-3910-43bb-9770-0E7A03F36AB8","6D44AC64-775A-4377-B3D1-D2C88B96E979","89EECAC9-2F5F-4516-99EE-8B655E62A0AA","A53B8718-0641-4351-A11B-6C3B1CAB554B","9C9D0E90-1108-4185-94E9-7C2CCF3779BC","BCCFF69D-5C2C-48d6-B02A-1A2AB7C95D39"],"group_id":"","hdr_settings":{"intensity":1.0,"mode":1,"nits":1000},"id":"E8CA7C56-C296-46a7-8FFE-044BF14DE22C","intensifies_audio":false,"is_placeholder":false,"is_tone_modify":false,"keyframe_refs":[],"last_nonzero_volume":1.0,"material_id":"4879F849-2791-42e1-A8A8-1F5B421C0FBC","render_index":0,"responsive_layout":{"enable":false,"horizontal_pos_layout":0,"size_layout":0,"target_follow":"","vertical_pos_layout":0},"reverse":false,"source_timerange":{"duration":5000000,"start":0},"speed":1.0,"target_timerange":{"duration":5000000,"start":0},"template_id":"","template_scene":"default","track_attribute":0,"track_render_index":0,"uniform_scale":{"on":true,"value":1.0},"visible":true,"volume":1.0},{"caption_info":null,"cartoon":false,"clip":{"alpha":1.0,"flip":{"horizontal":false,"vertical":false},"rotation":0.0,"scale":{"x":1.0,"y":1.0},"transform":{"x":0.0,"y":0.0}},"common_keyframes":[],"enable_adjust":true,"enable_color_correct_adjust":false,"enable_color_curves":true,"enable_color_match_adjust":false,"enable_color_wheels":true,"enable_lut":true,"enable_smart_color_adjust":false,"extra_material_refs":["19D108EC-6EE7-4d72-B591-0A8BB7AF49ED","0CEB925B-EF6B-45c0-90F5-ECEF18843B51","6E895B68-8FD8-4222-8A94-6F4C13304B9F","9F463929-C95C-4b33-B4FD-0C21C9FEF6A9","286EFF92-8BF9-405a-AA7E-F4AD2EB250C4","CC85A7C3-E7C6-4d20-ADF6-9A6DA50BF4AE"],"group_id":"","hdr_settings":{"intensity":1.0,"mode":1,"nits":1000},"id":"343DF5E2-5817-4bb6-A89F-6DC88E9842FB","intensifies_audio":false,"is_placeholder":false,"is_tone_modify":false,"keyframe_refs":[],"last_nonzero_volume":1.0,"material_id":"65FFA430-8127-44ce-AF32-C1C0F13341E4","render_index":0,"responsive_layout":{"enable":false,"horizontal_pos_layout":0,"size_layout":0,"target_follow":"","vertical_pos_layout":0},"reverse":false,"source_timerange":{"duration":4333335,"start":666665},"speed":1.0,"target_timerange":{"duration":4333333,"start":5000000},"template_id":"","template_scene":"default","track_attribute":0,"track_render_index":0,"uniform_scale":{"on":true,"value":1.0},"visible":true,"volume":1.0},{"caption_info":null,"cartoon":false,"clip":{"alpha":1.0,"flip":{"horizontal":false,"vertical":false},"rotation":0.0,"scale":{"x":1.0,"y":1.0},"transform":{"x":0.0,"y":0.0}},"common_keyframes":[],"enable_adjust":true,"enable_color_correct_adjust":false,"enable_color_curves":true,"enable_color_match_adjust":false,"enable_color_wheels":true,"enable_lut":true,"enable_smart_color_adjust":false,"extra_material_refs":["459F4010-2DEA-4f81-9508-B65272264D27","BB8A6E66-1FDD-4995-BF6B-F2EE7437734E","633134E0-10CE-4d62-9197-739D90F52407","11600053-4E44-49cf-9B04-2639EBB095C0","808A52D4-F30B-4ef9-AC80-B42600028C84","FFBA32CE-596F-4c8c-91E5-DA73E66B635F"],"group_id":"","hdr_settings":{"intensity":1.0,"mode":1,"nits":1000},"id":"209127DF-9168-4b59-A88F-DB2C94701B2B","intensifies_audio":false,"is_placeholder":false,"is_tone_modify":false,"keyframe_refs":[],"last_nonzero_volume":1.0,"material_id":"1B3B15F9-01BD-4973-BB19-DF0E70B7EB92","render_index":0,"responsive_layout":{"enable":false,"horizontal_pos_layout":0,"size_layout":0,"target_follow":"","vertical_pos_layout":0},"reverse":true,"source_timerange":{"duration":5000000,"start":0},"speed":1.0,"target_timerange":{"duration":5000000,"start":9333333},"template_id":"","template_scene":"default","track_attribute":0,"track_render_index":0,"uniform_scale":{"on":true,"value":1.0},"visible":true,"volume":1.0},{"caption_info":null,"cartoon":false,"clip":{"alpha":1.0,"flip":{"horizontal":false,"vertical":false},"rotation":0.0,"scale":{"x":1.0,"y":1.0},"transform":{"x":0.0,"y":0.0}},"common_keyframes":[],"enable_adjust":true,"enable_color_correct_adjust":false,"enable_color_curves":true,"enable_color_match_adjust":false,"enable_color_wheels":true,"enable_lut":true,"enable_smart_color_adjust":false,"extra_material_refs":["E1C092BB-9187-4163-9B12-7B076CC5DA7B","244E8299-6002-4036-A313-A9C52F8D0204","FE14287D-2570-4bd8-AC45-9419369AD684","F7A07F82-C049-4fa4-AD9B-A507DB3BFA70","70231891-6CEF-44d5-83F4-723FCE597E91","B506823D-EA00-439c-8865-3D15111D50E8"],"group_id":"","hdr_settings":{"intensity":1.0,"mode":1,"nits":1000},"id":"F9C3FDBF-6372-4ba8-A543-4CF479E9E720","intensifies_audio":false,"is_placeholder":false,"is_tone_modify":false,"keyframe_refs":[],"last_nonzero_volume":1.0,"material_id":"860B764B-5F87-462c-9794-D9A350B54C21","render_index":0,"responsive_layout":{"enable":false,"horizontal_pos_layout":0,"size_layout":0,"target_follow":"","vertical_pos_layout":0},"reverse":true,"source_timerange":{"duration":4700000,"start":300000},"speed":1.0,"target_timerange":{"duration":4700000,"start":14333333},"template_id":"","template_scene":"default","track_attribute":0,"track_render_index":0,"uniform_scale":{"on":true,"value":1.0},"visible":true,"volume":1.0},{"caption_info":null,"cartoon":false,"clip":{"alpha":1.0,"flip":{"horizontal":false,"vertical":false},"rotation":0.0,"scale":{"x":1.0,"y":1.0},"transform":{"x":0.0,"y":0.0}},"common_keyframes":[],"enable_adjust":true,"enable_color_correct_adjust":false,"enable_color_curves":true,"enable_color_match_adjust":false,"enable_color_wheels":true,"enable_lut":true,"enable_smart_color_adjust":false,"extra_material_refs":["0A60662C-C5B9-4d74-9E54-0BCE60A02890","66F8AF33-F8E3-4310-A0C0-E8068A3C552F","9456B8DD-99AA-436a-99F6-023472298022","0B902CCA-49A9-4708-AB8D-02C68A2B9B8C","911E04A4-7CCA-4afa-80C6-3F9B2BC2D836","11B0AC6E-07BA-4feb-AAF3-3B03351CBE50"],"group_id":"","hdr_settings":{"intensity":1.0,"mode":1,"nits":1000},"id":"94425169-EF64-4d9e-8BFB-2F86E5059745","intensifies_audio":false,"is_placeholder":false,"is_tone_modify":false,"keyframe_refs":[],"last_nonzero_volume":1.0,"material_id":"B61A1D49-45BF-48ea-B692-4D4EB967B3EC","render_index":0,"responsive_layout":{"enable":false,"horizontal_pos_layout":0,"size_layout":0,"target_follow":"","vertical_pos_layout":0},"reverse":false,"source_timerange":{"duration":5000000,"start":0},"speed":1.0,"target_timerange":{"duration":5000000,"start":19033333},"template_id":"","template_scene":"default","track_attribute":0,"track_render_index":0,"uniform_scale":{"on":true,"value":1.0},"visible":true,"volume":1.0},{"caption_info":null,"cartoon":false,"clip":{"alpha":1.0,"flip":{"horizontal":false,"vertical":false},"rotation":0.0,"scale":{"x":1.0,"y":1.0},"transform":{"x":0.0,"y":0.0}},"common_keyframes":[],"enable_adjust":true,"enable_color_correct_adjust":false,"enable_color_curves":true,"enable_color_match_adjust":false,"enable_color_wheels":true,"enable_lut":true,"enable_smart_color_adjust":false,"extra_material_refs":["A99F9324-4EF7-4745-BF60-6D51606F1B2F","02B2C8A5-8527-4723-ADF9-66E8CAD531D9","6F0EB217-6FE5-49d3-A73E-5D69391BDC76","B015B1FF-E0E7-4920-9A69-C55D1DAB7E7D","2672B592-DDCD-47e3-88C9-4C1CAF76B4D1","964D7BCE-D4E2-4f29-B100-DE2D998D5E7F"],"group_id":"","hdr_settings":{"intensity":1.0,"mode":1,"nits":1000},"id":"7CF559F8-C6D5-4593-81AE-5383A15FB494","intensifies_audio":false,"is_placeholder":false,"is_tone_modify":false,"keyframe_refs":[],"last_nonzero_volume":1.0,"material_id":"D0810F98-09E2-4b12-85FF-8DABB00DA22B","render_index":0,"responsive_layout":{"enable":false,"horizontal_pos_layout":0,"size_layout":0,"target_follow":"","vertical_pos_layout":0},"reverse":true,"source_timerange":{"duration":5000000,"start":0},"speed":1.0,"target_timerange":{"duration":5000000,"start":24033333},"template_id":"","template_scene":"default","track_attribute":0,"track_render_index":0,"uniform_scale":{"on":true,"value":1.0},"visible":true,"volume":1.0},{"caption_info":null,"cartoon":false,"clip":{"alpha":1.0,"flip":{"horizontal":false,"vertical":false},"rotation":0.0,"scale":{"x":1.0,"y":1.0},"transform":{"x":0.0,"y":0.0}},"common_keyframes":[],"enable_adjust":true,"enable_color_correct_adjust":false,"enable_color_curves":true,"enable_color_match_adjust":false,"enable_color_wheels":true,"enable_lut":true,"enable_smart_color_adjust":false,"extra_material_refs":["2A831922-7DD4-43ab-906E-2D8D96A787EB","8D47EAAF-506B-4fa1-8C50-6C6F16352DF1","B4BBD771-5D5F-464f-AF70-23BC6D8DF8B0","AFC64144-BB7A-4e24-9C97-FB395F576B2E","FEE95F65-D089-4ec6-9403-5EA5AD25A586","4F646373-7504-4ec2-ABB6-0354614B3C19"],"group_id":"","hdr_settings":{"intensity":1.0,"mode":1,"nits":1000},"id":"3EC48F20-B725-47e8-A0AE-229B97A37123","intensifies_audio":false,"is_placeholder":false,"is_tone_modify":false,"keyframe_refs":[],"last_nonzero_volume":1.0,"material_id":"C66CC50C-63B2-4c17-BCFA-7C53FAF19B4F","render_index":0,"responsive_layout":{"enable":false,"horizontal_pos_layout":0,"size_layout":0,"target_follow":"","vertical_pos_layout":0},"reverse":false,"source_timerange":{"duration":5000000,"start":0},"speed":1.0,"target_timerange":{"duration":5000000,"start":29033333},"template_id":"","template_scene":"default","track_attribute":0,"track_render_index":0,"uniform_scale":{"on":true,"value":1.0},"visible":true,"volume":1.0},{"caption_info":null,"cartoon":false,"clip":{"alpha":1.0,"flip":{"horizontal":false,"vertical":false},"rotation":0.0,"scale":{"x":1.0,"y":1.0},"transform":{"x":0.0,"y":0.0}},"common_keyframes":[],"enable_adjust":true,"enable_color_correct_adjust":false,"enable_color_curves":true,"enable_color_match_adjust":false,"enable_color_wheels":true,"enable_lut":true,"enable_smart_color_adjust":false,"extra_material_refs":["4FA5D7C7-DB9B-4d0c-B66C-65FF4A16131D","0CA57D97-D0D1-4982-8437-E0118C9DA5AD","469B47F0-5858-4227-B6E0-AA6EB771D061","76669D6A-D25A-4a84-932B-E4F8CEF66BDC","C290AC6F-2630-454f-B0B7-402A15F26317","AA89A742-D56E-42a1-B4A7-5C4B1AB5E59A"],"group_id":"","hdr_settings":{"intensity":1.0,"mode":1,"nits":1000},"id":"5EBD3B09-C534-4ee3-BB52-C1BCBB5A0D8E","intensifies_audio":false,"is_placeholder":false,"is_tone_modify":false,"keyframe_refs":[],"last_nonzero_volume":1.0,"material_id":"F9F7CFDD-FA75-4440-B7FE-F1F762A2FEDE","render_index":0,"responsive_layout":{"enable":false,"horizontal_pos_layout":0,"size_layout":0,"target_follow":"","vertical_pos_layout":0},"reverse":false,"source_timerange":{"duration":4200000,"start":800000},"speed":1.0,"target_timerange":{"duration":4200000,"start":34033333},"template_id":"","template_scene":"default","track_attribute":0,"track_render_index":0,"uniform_scale":{"on":true,"value":1.0},"visible":true,"volume":1.0},{"caption_info":null,"cartoon":false,"clip":{"alpha":1.0,"flip":{"horizontal":false,"vertical":false},"rotation":0.0,"scale":{"x":1.0,"y":1.0},"transform":{"x":0.0,"y":0.0}},"common_keyframes":[],"enable_adjust":true,"enable_color_correct_adjust":false,"enable_color_curves":true,"enable_color_match_adjust":false,"enable_color_wheels":true,"enable_lut":true,"enable_smart_color_adjust":false,"extra_material_refs":["43408264-A1E8-48ab-B8A0-75360BFB1988","FD154E74-4E99-44d9-965F-E1A77E9EC651","10C8FB81-C841-4181-828C-2208DA278133","9B4B8451-6277-4bf4-8B84-5BAC3A57AFFE","8D1C2990-7118-4ecb-93A0-97D14CB91D30","E0B14721-1FA6-4672-B276-BCEDDC6F0CCA"],"group_id":"","hdr_settings":{"intensity":1.0,"mode":1,"nits":1000},"id":"0E4BB683-BCF6-4fd5-8964-3DE17BFA6569","intensifies_audio":false,"is_placeholder":false,"is_tone_modify":false,"keyframe_refs":[],"last_nonzero_volume":1.0,"material_id":"D7FE2209-6A6A-4209-B627-561132587C76","render_index":0,"responsive_layout":{"enable":false,"horizontal_pos_layout":0,"size_layout":0,"target_follow":"","vertical_pos_layout":0},"reverse":true,"source_timerange":{"duration":5000000,"start":0},"speed":1.0,"target_timerange":{"duration":5000000,"start":38233333},"template_id":"","template_scene":"default","track_attribute":0,"track_render_index":0,"uniform_scale":{"on":true,"value":1.0},"visible":true,"volume":1.0},{"caption_info":null,"cartoon":false,"clip":{"alpha":1.0,"flip":{"horizontal":false,"vertical":false},"rotation":0.0,"scale":{"x":1.0,"y":1.0},"transform":{"x":0.0,"y":0.0}},"common_keyframes":[],"enable_adjust":true,"enable_color_correct_adjust":false,"enable_color_curves":true,"enable_color_match_adjust":false,"enable_color_wheels":true,"enable_lut":true,"enable_smart_color_adjust":false,"extra_material_refs":["71950E48-8601-408e-940A-C6B65E689DAC","B8FD9A1E-DE93-4a2a-8CF1-584C35ECDB45","1183DFE0-5E34-4bf7-B605-331E1A535828","32A344A1-BF30-4e58-BD36-E0740C433C15","0DD98F23-A4D8-4427-90BB-D458D32E3513","0B511BC7-2B4F-4a39-A75D-2AC324F4C214"],"group_id":"","hdr_settings":{"intensity":1.0,"mode":1,"nits":1000},"id":"F3914A4A-112F-44cd-8270-3A839022CEF4","intensifies_audio":false,"is_placeholder":false,"is_tone_modify":false,"keyframe_refs":[],"last_nonzero_volume":1.0,"material_id":"770A5E7A-2CE7-49a1-BA67-FF567CC6FBD0","render_index":0,"responsive_layout":{"enable":false,"horizontal_pos_layout":0,"size_layout":0,"target_follow":"","vertical_pos_layout":0},"reverse":false,"source_timerange":{"duration":5000000,"start":0},"speed":1.0,"target_timerange":{"duration":5000000,"start":43233333},"template_id":"","template_scene":"default","track_attribute":0,"track_render_index":0,"uniform_scale":{"on":true,"value":1.0},"visible":true,"volume":1.0},{"caption_info":null,"cartoon":false,"clip":{"alpha":1.0,"flip":{"horizontal":false,"vertical":false},"rotation":0.0,"scale":{"x":1.0,"y":1.0},"transform":{"x":0.0,"y":0.0}},"common_keyframes":[],"enable_adjust":true,"enable_color_correct_adjust":false,"enable_color_curves":true,"enable_color_match_adjust":false,"enable_color_wheels":true,"enable_lut":true,"enable_smart_color_adjust":false,"extra_material_refs":["51E3C535-5C47-4050-AD4A-B2A807FF4043","EE23D024-9683-46a1-8EF5-6561D6F5F454","4400C5B3-B433-48c2-AB70-5206F6732D03","571C46D3-AAEF-4ca2-8486-76A80E014E6C","49D356E7-3A0F-4fe2-8F84-495E7F94DE23","75BFFFD8-F74A-4ab7-B756-DFFC25E818D2"],"group_id":"","hdr_settings":{"intensity":1.0,"mode":1,"nits":1000},"id":"B61FBACE-8148-4dfa-906B-16C2FE6A6519","intensifies_audio":false,"is_placeholder":false,"is_tone_modify":false,"keyframe_refs":[],"last_nonzero_volume":1.0,"material_id":"8E60B263-FCD6-4174-BBF8-D22B974DD865","render_index":0,"responsive_layout":{"enable":false,"horizontal_pos_layout":0,"size_layout":0,"target_follow":"","vertical_pos_layout":0},"reverse":false,"source_timerange":{"duration":4433333,"start":566667},"speed":1.0,"target_timerange":{"duration":4433333,"start":48233333},"template_id":"","template_scene":"default","track_attribute":0,"track_render_index":0,"uniform_scale":{"on":true,"value":1.0},"visible":true,"volume":1.0},{"caption_info":null,"cartoon":false,"clip":{"alpha":1.0,"flip":{"horizontal":false,"vertical":false},"rotation":0.0,"scale":{"x":1.0,"y":1.0},"transform":{"x":0.0,"y":0.0}},"common_keyframes":[],"enable_adjust":true,"enable_color_correct_adjust":false,"enable_color_curves":true,"enable_color_match_adjust":false,"enable_color_wheels":true,"enable_lut":true,"enable_smart_color_adjust":false,"extra_material_refs":["1EE459E8-A684-4754-8752-8E1FA84F755B","8A0554E2-CCE8-40fb-8548-C40824C5B43E","91397D19-F2C2-4c8f-BDBB-FEFA3A6CA429","11FBD945-9140-4aef-A1E8-6FA13C7C06D0","00B20D41-55ED-4b92-A844-327BC0F97BF1","F7FA158F-ABB0-4b7f-AA11-8345B524F516"],"group_id":"","hdr_settings":{"intensity":1.0,"mode":1,"nits":1000},"id":"F0CAE604-2DDA-463a-98E0-29C9B3097DB1","intensifies_audio":false,"is_placeholder":false,"is_tone_modify":false,"keyframe_refs":[],"last_nonzero_volume":1.0,"material_id":"5554460D-82A4-4531-AA5C-B42CAC2E96C1","render_index":0,"responsive_layout":{"enable":false,"horizontal_pos_layout":0,"size_layout":0,"target_follow":"","vertical_pos_layout":0},"reverse":false,"source_timerange":{"duration":4366665,"start":633335},"speed":1.0,"target_timerange":{"duration":4366667,"start":52666666},"template_id":"","template_scene":"default","track_attribute":0,"track_render_index":0,"uniform_scale":{"on":true,"value":1.0},"visible":true,"volume":1.0},{"caption_info":null,"cartoon":false,"clip":{"alpha":1.0,"flip":{"horizontal":false,"vertical":false},"rotation":0.0,"scale":{"x":1.0,"y":1.0},"transform":{"x":0.0,"y":0.0}},"common_keyframes":[],"enable_adjust":true,"enable_color_correct_adjust":false,"enable_color_curves":true,"enable_color_match_adjust":false,"enable_color_wheels":true,"enable_lut":true,"enable_smart_color_adjust":false,"extra_material_refs":["09E003A0-D020-4552-B817-548382BC654C","DE059BB3-D9C7-47ce-9534-BE4DBC645B72","2BD3B28A-7F9E-4b8f-B90F-DD2D19E79772","86895C5E-A6D4-45db-A9F1-361E2C80E881","3D115A21-47DD-4a73-890F-4B9287BD3261","35CA1454-AC35-42aa-AA80-445827E4DD7D"],"group_id":"","hdr_settings":{"intensity":1.0,"mode":1,"nits":1000},"id":"BF7C6502-9670-43c8-9201-86B423A5C7CF","intensifies_audio":false,"is_placeholder":false,"is_tone_modify":false,"keyframe_refs":[],"last_nonzero_volume":1.0,"material_id":"180536E4-8E2E-402c-AE05-64F9F9A9C0F6","render_index":0,"responsive_layout":{"enable":false,"horizontal_pos_layout":0,"size_layout":0,"target_follow":"","vertical_pos_layout":0},"reverse":false,"source_timerange":{"duration":4333333,"start":666667},"speed":1.0,"target_timerange":{"duration":4333333,"start":57033333},"template_id":"","template_scene":"default","track_attribute":0,"track_render_index":0,"uniform_scale":{"on":true,"value":1.0},"visible":true,"volume":1.0},{"caption_info":null,"cartoon":false,"clip":{"alpha":1.0,"flip":{"horizontal":false,"vertical":false},"rotation":0.0,"scale":{"x":1.0,"y":1.0},"transform":{"x":0.0,"y":0.0}},"common_keyframes":[],"enable_adjust":true,"enable_color_correct_adjust":false,"enable_color_curves":true,"enable_color_match_adjust":false,"enable_color_wheels":true,"enable_lut":true,"enable_smart_color_adjust":false,"extra_material_refs":["7598E144-D91E-4c0e-9F28-FB4CDC834586","5B0C30B2-3851-41c8-B999-19FEC908A38C","62857576-F41C-4617-95EE-8BA79918D65B","6D6AD043-E698-4408-B412-EC3133CEFE9F","997083C3-4A64-4157-A5E8-4EBB0672763F","D35F75D2-A60C-401d-BFAC-11C616281CD8"],"group_id":"","hdr_settings":{"intensity":1.0,"mode":1,"nits":1000},"id":"5F476AE6-E089-4135-9AFC-E3C1A446C307","intensifies_audio":false,"is_placeholder":false,"is_tone_modify":false,"keyframe_refs":[],"last_nonzero_volume":1.0,"material_id":"5190D16A-8F5F-47c2-B75B-2109033F12FE","render_index":0,"responsive_layout":{"enable":false,"horizontal_pos_layout":0,"size_layout":0,"target_follow":"","vertical_pos_layout":0},"reverse":false,"source_timerange":{"duration":5000000,"start":0},"speed":1.0,"target_timerange":{"duration":5000000,"start":61366666},"template_id":"","template_scene":"default","track_attribute":0,"track_render_index":0,"uniform_scale":{"on":true,"value":1.0},"visible":true,"volume":1.0},{"caption_info":null,"cartoon":false,"clip":{"alpha":1.0,"flip":{"horizontal":false,"vertical":false},"rotation":0.0,"scale":{"x":1.0,"y":1.0},"transform":{"x":0.0,"y":0.0}},"common_keyframes":[],"enable_adjust":true,"enable_color_correct_adjust":false,"enable_color_curves":true,"enable_color_match_adjust":false,"enable_color_wheels":true,"enable_lut":true,"enable_smart_color_adjust":false,"extra_material_refs":["D6326DC9-EC61-495f-AC2E-E87F30A063C5","F6C56EEF-383A-452d-93BC-4323626B6399","71489C0E-EF51-4df3-A9EF-11568F50CE8D","4E3A3593-654B-4e55-8232-548138A0A24E","C3F759FF-421A-45f1-BD8A-5848BBFF39B3","13E71BF9-AE92-40ab-A9DF-582B93A8F41A"],"group_id":"","hdr_settings":{"intensity":1.0,"mode":1,"nits":1000},"id":"07BD1DD4-A332-443c-AD21-ACFDA651C9C9","intensifies_audio":false,"is_placeholder":false,"is_tone_modify":false,"keyframe_refs":[],"last_nonzero_volume":1.0,"material_id":"90F8EF8C-F4F2-47b1-8092-AA531734440E","render_index":0,"responsive_layout":{"enable":false,"horizontal_pos_layout":0,"size_layout":0,"target_follow":"","vertical_pos_layout":0},"reverse":false,"source_timerange":{"duration":4433332,"start":566668},"speed":1.0,"target_timerange":{"duration":4433334,"start":66366666},"template_id":"","template_scene":"default","track_attribute":0,"track_render_index":0,"uniform_scale":{"on":true,"value":1.0},"visible":true,"volume":1.0},{"caption_info":null,"cartoon":false,"clip":{"alpha":1.0,"flip":{"horizontal":false,"vertical":false},"rotation":0.0,"scale":{"x":1.0,"y":1.0},"transform":{"x":0.0,"y":0.0}},"common_keyframes":[],"enable_adjust":true,"enable_color_correct_adjust":false,"enable_color_curves":true,"enable_color_match_adjust":false,"enable_color_wheels":true,"enable_lut":true,"enable_smart_color_adjust":false,"extra_material_refs":["FBBDC9FE-A691-4d3f-B548-846746CFEF8D","9C345274-BBDB-4585-9BBB-7F7216955EE5","B636D0CF-2ECA-4cf4-A80E-D1F95A3DEAC2","62DD0615-FAB6-4a52-8CA3-CE837A4EA8A9","2064244D-7C6C-498a-8D5F-42CBB0B61094","E12DE06D-1AB1-42a4-B0B2-5A05F68AC255"],"group_id":"","hdr_settings":{"intensity":1.0,"mode":1,"nits":1000},"id":"AC580909-FCA9-4aa6-B9D8-EE096EED6E0E","intensifies_audio":false,"is_placeholder":false,"is_tone_modify":false,"keyframe_refs":[],"last_nonzero_volume":1.0,"material_id":"83ED2557-5118-430e-B472-DDB6892C2D7E","render_index":0,"responsive_layout":{"enable":false,"horizontal_pos_layout":0,"size_layout":0,"target_follow":"","vertical_pos_layout":0},"reverse":false,"source_timerange":{"duration":4500000,"start":500000},"speed":1.0,"target_timerange":{"duration":4500000,"start":70800000},"template_id":"","template_scene":"default","track_attribute":0,"track_render_index":0,"uniform_scale":{"on":true,"value":1.0},"visible":true,"volume":1.0},{"caption_info":null,"cartoon":false,"clip":{"alpha":1.0,"flip":{"horizontal":false,"vertical":false},"rotation":0.0,"scale":{"x":1.0,"y":1.0},"transform":{"x":0.0,"y":0.0}},"common_keyframes":[],"enable_adjust":true,"enable_color_correct_adjust":false,"enable_color_curves":true,"enable_color_match_adjust":false,"enable_color_wheels":true,"enable_lut":true,"enable_smart_color_adjust":false,"extra_material_refs":["DA7D34FC-958C-47c7-AC81-BBC7B76EA277","A97DE1AD-6C6D-43f5-AB2A-92842F2D4F6A","A8FA2745-19F3-4ffd-B028-90AAE0B270AC","C6548A00-E5D6-41c1-AE49-0F3737D154C9","3FC6E014-5359-48d3-B72F-BC3F65C357AD","D942F6BF-3B00-45af-88F7-C1D22F9C6FDE"],"group_id":"","hdr_settings":{"intensity":1.0,"mode":1,"nits":1000},"id":"397AA3F7-B091-4095-AE37-E6C1CDF3213D","intensifies_audio":false,"is_placeholder":false,"is_tone_modify":false,"keyframe_refs":[],"last_nonzero_volume":1.0,"material_id":"80671086-2E51-4107-BFAE-588E5BEBF8D7","render_index":0,"responsive_layout":{"enable":false,"horizontal_pos_layout":0,"size_layout":0,"target_follow":"","vertical_pos_layout":0},"reverse":true,"source_timerange":{"duration":4500000,"start":0},"speed":1.0,"target_timerange":{"duration":4500000,"start":75300000},"template_id":"","template_scene":"default","track_attribute":0,"track_render_index":0,"uniform_scale":{"on":true,"value":1.0},"visible":true,"volume":1.0},{"caption_info":null,"cartoon":false,"clip":{"alpha":1.0,"flip":{"horizontal":false,"vertical":false},"rotation":0.0,"scale":{"x":1.0,"y":1.0},"transform":{"x":0.0,"y":0.0}},"common_keyframes":[],"enable_adjust":true,"enable_color_correct_adjust":false,"enable_color_curves":true,"enable_color_match_adjust":false,"enable_color_wheels":true,"enable_lut":true,"enable_smart_color_adjust":false,"extra_material_refs":["95DD9D8C-F4A5-4347-991C-9377219A0D6A","58DF1B63-7A24-4eb4-A229-986E72DFC69C","67ADACE5-1062-462d-B22E-784810603441","1133E5FC-2F61-45b0-A26B-977AF85EE404","5ADCA88C-459F-40aa-947F-0EF9FEF8C09E","AC236A8A-BD63-4d68-BA7B-DE20095DB167"],"group_id":"","hdr_settings":{"intensity":1.0,"mode":1,"nits":1000},"id":"C233D791-80AA-4ca8-BC54-52B00A2F9784","intensifies_audio":false,"is_placeholder":false,"is_tone_modify":false,"keyframe_refs":[],"last_nonzero_volume":1.0,"material_id":"4D3F3E73-8AC6-46a2-AD4E-2CACA981C0AA","render_index":0,"responsive_layout":{"enable":false,"horizontal_pos_layout":0,"size_layout":0,"target_follow":"","vertical_pos_layout":0},"reverse":false,"source_timerange":{"duration":4433334,"start":566666},"speed":1.0,"target_timerange":{"duration":4433333,"start":79800000},"template_id":"","template_scene":"default","track_attribute":0,"track_render_index":0,"uniform_scale":{"on":true,"value":1.0},"visible":true,"volume":1.0},{"caption_info":null,"cartoon":false,"clip":{"alpha":1.0,"flip":{"horizontal":false,"vertical":false},"rotation":0.0,"scale":{"x":1.0,"y":1.0},"transform":{"x":0.0,"y":0.0}},"common_keyframes":[],"enable_adjust":true,"enable_color_correct_adjust":false,"enable_color_curves":true,"enable_color_match_adjust":false,"enable_color_wheels":true,"enable_lut":true,"enable_smart_color_adjust":false,"extra_material_refs":["1F957FB2-D504-4e9f-95F9-6EF233CFC431","2AED7E8C-91D7-4f6d-A965-D0D04A76DC57","7D4A65C5-1CBB-4a9e-98A3-9F8923152B14","524D1E62-33EA-4387-98A7-B5FCBC25C1B5","F6E99F25-321F-4282-8B12-F89152295201","33385469-9003-450e-974A-EC97217DB402"],"group_id":"","hdr_settings":{"intensity":1.0,"mode":1,"nits":1000},"id":"2E095573-1755-48ce-AE01-73058C7E4D24","intensifies_audio":false,"is_placeholder":false,"is_tone_modify":false,"keyframe_refs":[],"last_nonzero_volume":1.0,"material_id":"65BD59B4-5A7A-48f4-A70C-6684BDC54213","render_index":0,"responsive_layout":{"enable":false,"horizontal_pos_layout":0,"size_layout":0,"target_follow":"","vertical_pos_layout":0},"reverse":false,"source_timerange":{"duration":4500000,"start":500000},"speed":1.0,"target_timerange":{"duration":4500000,"start":84233333},"template_id":"","template_scene":"default","track_attribute":0,"track_render_index":0,"uniform_scale":{"on":true,"value":1.0},"visible":true,"volume":1.0},{"caption_info":null,"cartoon":false,"clip":{"alpha":1.0,"flip":{"horizontal":false,"vertical":false},"rotation":0.0,"scale":{"x":1.0,"y":1.0},"transform":{"x":0.0,"y":0.0}},"common_keyframes":[],"enable_adjust":true,"enable_color_correct_adjust":false,"enable_color_curves":true,"enable_color_match_adjust":false,"enable_color_wheels":true,"enable_lut":true,"enable_smart_color_adjust":false,"extra_material_refs":["0A08D7FA-593E-4110-9DDA-E168765E8242","A981FF04-AC17-4d14-BB5B-40B8C3E66668","EEA10E24-7C36-4e5d-986C-D792CB6139E9","98CD8816-71DD-450e-8895-8509ACE2B0C8","10749736-2E9F-45d9-AF70-9C276915450F","239E65B5-77AD-4857-A422-DCA804D1BCBC"],"group_id":"","hdr_settings":{"intensity":1.0,"mode":1,"nits":1000},"id":"9BFCED5E-BFB1-4468-8357-B8B855300527","intensifies_audio":false,"is_placeholder":false,"is_tone_modify":false,"keyframe_refs":[],"last_nonzero_volume":1.0,"material_id":"5CA20CBD-135F-475a-877E-3918E6D22E71","render_index":0,"responsive_layout":{"enable":false,"horizontal_pos_layout":0,"size_layout":0,"target_follow":"","vertical_pos_layout":0},"reverse":false,"source_timerange":{"duration":4400000,"start":600000},"speed":1.0,"target_timerange":{"duration":4400000,"start":88733333},"template_id":"","template_scene":"default","track_attribute":0,"track_render_index":0,"uniform_scale":{"on":true,"value":1.0},"visible":true,"volume":1.0},{"caption_info":null,"cartoon":false,"clip":{"alpha":1.0,"flip":{"horizontal":false,"vertical":false},"rotation":0.0,"scale":{"x":1.0,"y":1.0},"transform":{"x":0.0,"y":0.0}},"common_keyframes":[],"enable_adjust":true,"enable_color_correct_adjust":false,"enable_color_curves":true,"enable_color_match_adjust":false,"enable_color_wheels":true,"enable_lut":true,"enable_smart_color_adjust":false,"extra_material_refs":["FCBBE232-79A3-4571-8396-44E100B943C5","B2814116-6942-4044-AE37-EC7B4E4C0927","9E9E2073-A097-4908-9C7F-AA67FC53F342","80BE0646-7D92-48e0-A20D-7626D00DCEE4","A52CC8C7-4850-4e26-94E1-5CD164CB4DB0","7BD006C7-4CFE-4caa-B03B-DB65424A2E69"],"group_id":"","hdr_settings":{"intensity":1.0,"mode":1,"nits":1000},"id":"1B066994-63F4-429d-880F-7308A102B1BA","intensifies_audio":false,"is_placeholder":false,"is_tone_modify":false,"keyframe_refs":[],"last_nonzero_volume":1.0,"material_id":"E306B0E0-55EF-4745-8439-12699D8518C9","render_index":0,"responsive_layout":{"enable":false,"horizontal_pos_layout":0,"size_layout":0,"target_follow":"","vertical_pos_layout":0},"reverse":false,"source_timerange":{"duration":4466667,"start":533333},"speed":1.0,"target_timerange":{"duration":4466667,"start":93133333},"template_id":"","template_scene":"default","track_attribute":0,"track_render_index":0,"uniform_scale":{"on":true,"value":1.0},"visible":true,"volume":1.0},{"caption_info":null,"cartoon":false,"clip":{"alpha":1.0,"flip":{"horizontal":false,"vertical":false},"rotation":0.0,"scale":{"x":1.0,"y":1.0},"transform":{"x":0.0,"y":0.0}},"common_keyframes":[],"enable_adjust":true,"enable_color_correct_adjust":false,"enable_color_curves":true,"enable_color_match_adjust":false,"enable_color_wheels":true,"enable_lut":true,"enable_smart_color_adjust":false,"extra_material_refs":["B2703849-C9FB-416e-8877-02192D97F596","11B36CCD-0F69-4488-90CC-A86727201C17","A8A4ED32-7CD1-4d53-9A0C-3BFC90F64C85","DD156D51-9608-412b-B537-6E876C962634","59F59443-F058-44b4-AA39-4D40F948C81B"],"group_id":"","hdr_settings":{"intensity":1.0,"mode":1,"nits":1000},"id":"33ED4907-3426-4be5-A018-1244A7DFB18A","intensifies_audio":false,"is_placeholder":false,"is_tone_modify":false,"keyframe_refs":[],"last_nonzero_volume":1.0,"material_id":"796298AC-8BB6-4ad2-864B-B6CCBC413D62","render_index":0,"responsive_layout":{"enable":false,"horizontal_pos_layout":0,"size_layout":0,"target_follow":"","vertical_pos_layout":0},"reverse":false,"source_timerange":{"duration":4400000,"start":600000},"speed":1.0,"target_timerange":{"duration":4400000,"start":97600000},"template_id":"","template_scene":"default","track_attribute":0,"track_render_index":0,"uniform_scale":{"on":true,"value":1.0},"visible":true,"volume":1.0}],"type":"video"}],"update_time":0,"version":360000}